STARTFONT 2.1
FONT -Adobe-Utopia-Regular-R-Normal--15-140-75-75-P-79-ISO10646-1
SIZE 14 75 75
FONTBOUNDINGBOX 19 22 -3 -6
COMMENT $Xorg: $
COMMENT ISO10646-1 extension by Markus Kuhn <mkuhn@acm.org>, 2001-03-20
STARTPROPERTIES 28
FOUNDRY "Adobe"
FAMILY_NAME "Utopia"
WEIGHT_NAME "Regular"
SLANT "R"
SETWIDTH_NAME "Normal"
ADD_STYLE_NAME ""
PIXEL_SIZE 15
POINT_SIZE 140
RESOLUTION_X 75
RESOLUTION_Y 75
SPACING "P"
AVERAGE_WIDTH 79
CHARSET_REGISTRY "ISO10646"
CHARSET_ENCODING "1"
CAP_HEIGHT 10
X_HEIGHT 7
RELATIVE_SETWIDTH 50
RELATIVE_WEIGHT 50
WEIGHT 136
FACE_NAME "Utopia Regular"
COPYRIGHT "Copyright (c) 1989, 1991 Adobe Systems Incorporated.  All rights reserved."
NOTICE "Utopia is a registered trademark of Adobe Systems Incorporated."
DESTINATION 0
FONT_ASCENT 12
FONT_DESCENT 3
DEFAULT_CHAR 0
_ADOBE_PSFONT "Utopia-Regular"
_DEC_DEVICE_FONTNAMES "PS=Utopia-Regular"
ENDPROPERTIES
CHARS 756
STARTCHAR char0
ENCODING 0
SWIDTH 798 0
DWIDTH 11 0
BBX 9 9 1 0
BITMAP
AA80
0000
8080
0000
8080
0000
8080
0000
AA80
ENDCHAR
STARTCHAR space
ENCODING 32
SWIDTH 225 0
DWIDTH 3 0
BBX 0 0 0 0
BITMAP
ENDCHAR
STARTCHAR exclam
ENCODING 33
SWIDTH 242 0
DWIDTH 3 0
BBX 1 10 1 0
BITMAP
80
80
80
80
80
80
80
00
80
80
ENDCHAR
STARTCHAR quotedbl
ENCODING 34
SWIDTH 458 0
DWIDTH 6 0
BBX 3 4 1 6
BITMAP
A0
A0
A0
A0
ENDCHAR
STARTCHAR numbersign
ENCODING 35
SWIDTH 530 0
DWIDTH 8 0
BBX 7 9 0 1
BITMAP
14
14
7E
28
28
28
FC
50
50
ENDCHAR
STARTCHAR dollar
ENCODING 36
SWIDTH 530 0
DWIDTH 8 0
BBX 6 12 1 -1
BITMAP
10
7C
D4
90
D0
78
2C
24
24
AC
F8
20
ENDCHAR
STARTCHAR percent
ENCODING 37
SWIDTH 838 0
DWIDTH 12 0
BBX 11 10 0 0
BITMAP
6080
9F00
9100
9200
6400
04C0
0920
1120
1120
20C0
ENDCHAR
STARTCHAR ampersand
ENCODING 38
SWIDTH 706 0
DWIDTH 10 0
BBX 9 10 1 0
BITMAP
3800
4400
4400
2800
7000
D900
8900
8600
C600
7980
ENDCHAR
STARTCHAR quotesingle
ENCODING 39
SWIDTH 278 0
DWIDTH 4 0
BBX 1 4 1 6
BITMAP
80
80
80
80
ENDCHAR
STARTCHAR parenleft
ENCODING 40
SWIDTH 350 0
DWIDTH 5 0
BBX 3 12 1 -2
BITMAP
20
40
80
80
80
80
80
80
80
80
40
20
ENDCHAR
STARTCHAR parenright
ENCODING 41
SWIDTH 350 0
DWIDTH 5 0
BBX 3 12 0 -2
BITMAP
80
40
20
20
20
20
20
20
20
20
40
80
ENDCHAR
STARTCHAR asterisk
ENCODING 42
SWIDTH 412 0
DWIDTH 6 0
BBX 5 5 0 5
BITMAP
20
A8
70
A8
20
ENDCHAR
STARTCHAR plus
ENCODING 43
SWIDTH 570 0
DWIDTH 8 0
BBX 7 7 0 0
BITMAP
10
10
10
FE
10
10
10
ENDCHAR
STARTCHAR comma
ENCODING 44
SWIDTH 265 0
DWIDTH 4 0
BBX 2 4 1 -2
BITMAP
C0
40
40
80
ENDCHAR
STARTCHAR hyphen
ENCODING 45
SWIDTH 392 0
DWIDTH 5 0
BBX 3 1 1 3
BITMAP
E0
ENDCHAR
STARTCHAR period
ENCODING 46
SWIDTH 265 0
DWIDTH 4 0
BBX 1 2 1 0
BITMAP
80
80
ENDCHAR
STARTCHAR slash
ENCODING 47
SWIDTH 460 0
DWIDTH 7 0
BBX 4 10 1 0
BITMAP
10
10
20
20
20
40
40
80
80
80
ENDCHAR
STARTCHAR zero
ENCODING 48
SWIDTH 530 0
DWIDTH 8 0
BBX 6 10 1 0
BITMAP
78
CC
84
84
84
84
84
84
CC
78
ENDCHAR
STARTCHAR one
ENCODING 49
SWIDTH 530 0
DWIDTH 8 0
BBX 5 10 1 0
BITMAP
20
E0
20
20
20
20
20
20
20
F8
ENDCHAR
STARTCHAR two
ENCODING 50
SWIDTH 530 0
DWIDTH 8 0
BBX 6 10 1 0
BITMAP
78
CC
04
0C
18
10
20
60
C4
FC
ENDCHAR
STARTCHAR three
ENCODING 51
SWIDTH 530 0
DWIDTH 8 0
BBX 6 10 1 0
BITMAP
78
CC
04
08
38
0C
04
04
CC
78
ENDCHAR
STARTCHAR four
ENCODING 52
SWIDTH 530 0
DWIDTH 8 0
BBX 6 10 1 0
BITMAP
30
30
20
68
48
C8
88
FC
08
1C
ENDCHAR
STARTCHAR five
ENCODING 53
SWIDTH 530 0
DWIDTH 8 0
BBX 6 10 1 0
BITMAP
FC
80
80
B8
CC
84
04
04
CC
78
ENDCHAR
STARTCHAR six
ENCODING 54
SWIDTH 530 0
DWIDTH 8 0
BBX 6 10 1 0
BITMAP
78
CC
80
80
B8
CC
84
84
CC
78
ENDCHAR
STARTCHAR seven
ENCODING 55
SWIDTH 530 0
DWIDTH 8 0
BBX 6 10 1 0
BITMAP
FC
84
08
08
18
10
10
30
30
20
ENDCHAR
STARTCHAR eight
ENCODING 56
SWIDTH 530 0
DWIDTH 8 0
BBX 6 10 1 0
BITMAP
78
CC
84
CC
78
CC
84
84
CC
78
ENDCHAR
STARTCHAR nine
ENCODING 57
SWIDTH 530 0
DWIDTH 8 0
BBX 6 10 1 0
BITMAP
78
CC
84
84
CC
74
04
04
CC
78
ENDCHAR
STARTCHAR colon
ENCODING 58
SWIDTH 265 0
DWIDTH 4 0
BBX 1 7 1 0
BITMAP
80
80
00
00
00
80
80
ENDCHAR
STARTCHAR semicolon
ENCODING 59
SWIDTH 265 0
DWIDTH 4 0
BBX 2 9 1 -2
BITMAP
40
40
00
00
00
C0
40
40
80
ENDCHAR
STARTCHAR less
ENCODING 60
SWIDTH 570 0
DWIDTH 8 0
BBX 7 7 0 0
BITMAP
02
0C
30
C0
30
0C
02
ENDCHAR
STARTCHAR equal
ENCODING 61
SWIDTH 570 0
DWIDTH 8 0
BBX 7 4 0 1
BITMAP
FE
00
00
FE
ENDCHAR
STARTCHAR greater
ENCODING 62
SWIDTH 570 0
DWIDTH 8 0
BBX 7 7 0 0
BITMAP
80
60
18
06
18
60
80
ENDCHAR
STARTCHAR question
ENCODING 63
SWIDTH 389 0
DWIDTH 6 0
BBX 5 10 0 0
BITMAP
70
C8
18
30
60
40
30
00
20
20
ENDCHAR
STARTCHAR at
ENCODING 64
SWIDTH 793 0
DWIDTH 11 0
BBX 10 10 1 0
BITMAP
1F00
2080
4E40
9240
A240
A440
AC80
9700
4000
3F00
ENDCHAR
STARTCHAR A
ENCODING 65
SWIDTH 635 0
DWIDTH 9 0
BBX 9 10 0 0
BITMAP
0800
0800
1400
1400
2200
2200
3E00
4100
4100
E380
ENDCHAR
STARTCHAR B
ENCODING 66
SWIDTH 646 0
DWIDTH 9 0
BBX 7 10 1 0
BITMAP
FC
46
42
44
7C
46
42
42
46
FC
ENDCHAR
STARTCHAR C
ENCODING 67
SWIDTH 684 0
DWIDTH 10 0
BBX 8 10 1 0
BITMAP
3E
43
C1
80
80
80
80
C1
43
3E
ENDCHAR
STARTCHAR D
ENCODING 68
SWIDTH 779 0
DWIDTH 11 0
BBX 9 10 1 0
BITMAP
FE00
4100
4180
4080
4080
4080
4080
4180
4100
FE00
ENDCHAR
STARTCHAR E
ENCODING 69
SWIDTH 606 0
DWIDTH 9 0
BBX 7 10 1 0
BITMAP
FE
42
40
44
7C
44
40
42
42
FE
ENDCHAR
STARTCHAR F
ENCODING 70
SWIDTH 580 0
DWIDTH 9 0
BBX 7 10 1 0
BITMAP
FE
42
40
44
7C
44
40
40
40
E0
ENDCHAR
STARTCHAR G
ENCODING 71
SWIDTH 734 0
DWIDTH 11 0
BBX 9 10 1 0
BITMAP
3E00
4300
C100
8000
8000
8780
8100
C100
4100
3E00
ENDCHAR
STARTCHAR H
ENCODING 72
SWIDTH 798 0
DWIDTH 11 0
BBX 9 10 1 0
BITMAP
E380
4100
4100
4100
7F00
4100
4100
4100
4100
E380
ENDCHAR
STARTCHAR I
ENCODING 73
SWIDTH 349 0
DWIDTH 5 0
BBX 3 10 1 0
BITMAP
E0
40
40
40
40
40
40
40
40
E0
ENDCHAR
STARTCHAR J
ENCODING 74
SWIDTH 350 0
DWIDTH 5 0
BBX 4 12 0 -2
BITMAP
70
20
20
20
20
20
20
20
20
20
40
80
ENDCHAR
STARTCHAR K
ENCODING 75
SWIDTH 658 0
DWIDTH 10 0
BBX 9 10 1 0
BITMAP
E700
4200
4400
4800
5000
7800
4C00
4600
4300
E180
ENDCHAR
STARTCHAR L
ENCODING 76
SWIDTH 568 0
DWIDTH 8 0
BBX 7 10 1 0
BITMAP
E0
40
40
40
40
40
40
42
42
FE
ENDCHAR
STARTCHAR M
ENCODING 77
SWIDTH 944 0
DWIDTH 14 0
BBX 12 10 1 0
BITMAP
E070
6060
70A0
50A0
5920
4920
4E20
4620
4420
E070
ENDCHAR
STARTCHAR N
ENCODING 78
SWIDTH 780 0
DWIDTH 12 0
BBX 10 10 1 0
BITMAP
C1C0
6080
7080
5880
4880
4480
4680
4380
4180
E080
ENDCHAR
STARTCHAR O
ENCODING 79
SWIDTH 762 0
DWIDTH 11 0
BBX 9 10 1 0
BITMAP
3E00
4100
C180
8080
8080
8080
8080
C180
4100
3E00
ENDCHAR
STARTCHAR P
ENCODING 80
SWIDTH 600 0
DWIDTH 9 0
BBX 7 10 1 0
BITMAP
FC
46
42
42
46
7C
40
40
40
E0
ENDCHAR
STARTCHAR Q
ENCODING 81
SWIDTH 762 0
DWIDTH 11 0
BBX 9 13 1 -3
BITMAP
3E00
4100
C180
8080
8080
8080
8080
C180
4100
3E00
0C00
0600
0180
ENDCHAR
STARTCHAR R
ENCODING 82
SWIDTH 644 0
DWIDTH 9 0
BBX 8 10 1 0
BITMAP
FC
46
42
42
44
7C
46
42
42
E3
ENDCHAR
STARTCHAR S
ENCODING 83
SWIDTH 541 0
DWIDTH 8 0
BBX 6 10 1 0
BITMAP
78
CC
84
C0
60
18
0C
84
CC
78
ENDCHAR
STARTCHAR T
ENCODING 84
SWIDTH 621 0
DWIDTH 9 0
BBX 9 10 0 0
BITMAP
FF80
8880
0800
0800
0800
0800
0800
0800
0800
1C00
ENDCHAR
STARTCHAR U
ENCODING 85
SWIDTH 791 0
DWIDTH 11 0
BBX 9 10 1 0
BITMAP
E380
4100
4100
4100
4100
4100
4100
4100
6300
3E00
ENDCHAR
STARTCHAR V
ENCODING 86
SWIDTH 634 0
DWIDTH 9 0
BBX 9 10 0 0
BITMAP
E380
4100
6100
2200
2200
3200
1400
1C00
0800
0800
ENDCHAR
STARTCHAR W
ENCODING 87
SWIDTH 940 0
DWIDTH 15 0
BBX 15 10 0 0
BITMAP
E10E
4104
6388
2288
2288
34D0
1450
1450
1860
0820
ENDCHAR
STARTCHAR X
ENCODING 88
SWIDTH 624 0
DWIDTH 10 0
BBX 8 10 1 0
BITMAP
E7
42
24
34
18
18
2C
24
42
E7
ENDCHAR
STARTCHAR Y
ENCODING 89
SWIDTH 588 0
DWIDTH 9 0
BBX 9 10 0 0
BITMAP
E380
6100
2200
3200
1400
1C00
0800
0800
0800
1C00
ENDCHAR
STARTCHAR Z
ENCODING 90
SWIDTH 610 0
DWIDTH 9 0
BBX 7 10 1 0
BITMAP
FE
86
0C
08
18
30
20
62
C2
FE
ENDCHAR
STARTCHAR bracketleft
ENCODING 91
SWIDTH 330 0
DWIDTH 5 0
BBX 3 12 1 -2
BITMAP
E0
80
80
80
80
80
80
80
80
80
80
E0
ENDCHAR
STARTCHAR backslash
ENCODING 92
SWIDTH 460 0
DWIDTH 7 0
BBX 4 10 1 0
BITMAP
80
80
40
40
40
20
20
10
10
10
ENDCHAR
STARTCHAR bracketright
ENCODING 93
SWIDTH 330 0
DWIDTH 5 0
BBX 3 12 1 -2
BITMAP
E0
20
20
20
20
20
20
20
20
20
20
E0
ENDCHAR
STARTCHAR asciicircum
ENCODING 94
SWIDTH 570 0
DWIDTH 8 0
BBX 7 7 0 3
BITMAP
10
10
28
28
44
44
82
ENDCHAR
STARTCHAR underscore
ENCODING 95
SWIDTH 500 0
DWIDTH 7 0
BBX 7 1 0 -2
BITMAP
FE
ENDCHAR
STARTCHAR grave
ENCODING 96
SWIDTH 400 0
DWIDTH 6 0
BBX 3 2 1 8
BITMAP
C0
20
ENDCHAR
STARTCHAR a
ENCODING 97
SWIDTH 523 0
DWIDTH 8 0
BBX 6 7 1 0
BITMAP
70
D8
08
78
88
D8
6C
ENDCHAR
STARTCHAR b
ENCODING 98
SWIDTH 598 0
DWIDTH 8 0
BBX 7 11 0 0
BITMAP
C0
40
40
40
5C
66
42
42
42
66
5C
ENDCHAR
STARTCHAR c
ENCODING 99
SWIDTH 496 0
DWIDTH 7 0
BBX 5 7 1 0
BITMAP
70
D8
80
80
80
C8
70
ENDCHAR
STARTCHAR d
ENCODING 100
SWIDTH 598 0
DWIDTH 9 0
BBX 7 11 1 0
BITMAP
0C
04
04
04
74
CC
84
84
84
CC
76
ENDCHAR
STARTCHAR e
ENCODING 101
SWIDTH 514 0
DWIDTH 8 0
BBX 6 7 1 0
BITMAP
78
CC
84
FC
80
C4
78
ENDCHAR
STARTCHAR f
ENCODING 102
SWIDTH 319 0
DWIDTH 5 0
BBX 5 11 1 0
BITMAP
30
58
40
40
F0
40
40
40
40
40
E0
ENDCHAR
STARTCHAR g
ENCODING 103
SWIDTH 520 0
DWIDTH 8 0
BBX 7 10 1 -3
BITMAP
7E
C8
84
CC
78
40
7C
86
C2
7C
ENDCHAR
STARTCHAR h
ENCODING 104
SWIDTH 607 0
DWIDTH 9 0
BBX 7 11 1 0
BITMAP
C0
40
40
40
58
6C
44
44
44
44
EE
ENDCHAR
STARTCHAR i
ENCODING 105
SWIDTH 291 0
DWIDTH 5 0
BBX 3 10 1 0
BITMAP
40
40
00
C0
40
40
40
40
40
E0
ENDCHAR
STARTCHAR j
ENCODING 106
SWIDTH 280 0
DWIDTH 3 0
BBX 3 13 -1 -3
BITMAP
20
20
00
60
20
20
20
20
20
20
20
40
80
ENDCHAR
STARTCHAR k
ENCODING 107
SWIDTH 524 0
DWIDTH 8 0
BBX 7 11 1 0
BITMAP
C0
40
40
40
4C
48
50
70
58
4C
E6
ENDCHAR
STARTCHAR l
ENCODING 108
SWIDTH 279 0
DWIDTH 5 0
BBX 3 11 1 0
BITMAP
C0
40
40
40
40
40
40
40
40
40
E0
ENDCHAR
STARTCHAR m
ENCODING 109
SWIDTH 923 0
DWIDTH 13 0
BBX 11 7 1 0
BITMAP
D980
6EC0
4440
4440
4440
4440
EEE0
ENDCHAR
STARTCHAR n
ENCODING 110
SWIDTH 619 0
DWIDTH 9 0
BBX 7 7 1 0
BITMAP
D8
6C
44
44
44
44
EE
ENDCHAR
STARTCHAR o
ENCODING 111
SWIDTH 577 0
DWIDTH 8 0
BBX 6 7 1 0
BITMAP
78
CC
84
84
84
CC
78
ENDCHAR
STARTCHAR p
ENCODING 112
SWIDTH 608 0
DWIDTH 8 0
BBX 7 10 0 -3
BITMAP
DC
66
42
42
42
66
5C
40
40
E0
ENDCHAR
STARTCHAR q
ENCODING 113
SWIDTH 591 0
DWIDTH 8 0
BBX 7 10 1 -3
BITMAP
74
CC
84
84
84
CC
74
04
04
0E
ENDCHAR
STARTCHAR r
ENCODING 114
SWIDTH 389 0
DWIDTH 6 0
BBX 5 7 1 0
BITMAP
D8
68
40
40
40
40
E0
ENDCHAR
STARTCHAR s
ENCODING 115
SWIDTH 436 0
DWIDTH 7 0
BBX 5 7 1 0
BITMAP
70
98
C0
70
18
88
F0
ENDCHAR
STARTCHAR t
ENCODING 116
SWIDTH 344 0
DWIDTH 4 0
BBX 4 9 0 0
BITMAP
40
40
F0
40
40
40
40
40
30
ENDCHAR
STARTCHAR u
ENCODING 117
SWIDTH 606 0
DWIDTH 9 0
BBX 7 7 1 0
BITMAP
CC
44
44
44
44
6C
36
ENDCHAR
STARTCHAR v
ENCODING 118
SWIDTH 504 0
DWIDTH 7 0
BBX 7 7 0 0
BITMAP
EE
44
64
28
38
10
10
ENDCHAR
STARTCHAR w
ENCODING 119
SWIDTH 768 0
DWIDTH 11 0
BBX 11 7 0 0
BITMAP
E4E0
4440
6640
2A80
3B80
1100
1100
ENDCHAR
STARTCHAR x
ENCODING 120
SWIDTH 486 0
DWIDTH 7 0
BBX 7 7 0 0
BITMAP
EE
44
28
10
28
44
EE
ENDCHAR
STARTCHAR y
ENCODING 121
SWIDTH 506 0
DWIDTH 7 0
BBX 7 10 0 -3
BITMAP
EE
44
64
28
38
10
10
20
A0
C0
ENDCHAR
STARTCHAR z
ENCODING 122
SWIDTH 480 0
DWIDTH 6 0
BBX 6 7 0 0
BITMAP
FC
88
10
20
40
84
FC
ENDCHAR
STARTCHAR braceleft
ENCODING 123
SWIDTH 340 0
DWIDTH 5 0
BBX 3 12 1 -2
BITMAP
20
40
40
40
40
80
40
40
40
40
40
20
ENDCHAR
STARTCHAR bar
ENCODING 124
SWIDTH 228 0
DWIDTH 3 0
BBX 1 10 1 0
BITMAP
80
80
80
80
80
80
80
80
80
80
ENDCHAR
STARTCHAR braceright
ENCODING 125
SWIDTH 340 0
DWIDTH 5 0
BBX 3 12 1 -2
BITMAP
80
40
40
40
40
20
40
40
40
40
40
80
ENDCHAR
STARTCHAR asciitilde
ENCODING 126
SWIDTH 570 0
DWIDTH 8 0
BBX 7 2 0 3
BITMAP
72
9C
ENDCHAR
STARTCHAR space
ENCODING 160
SWIDTH 225 0
DWIDTH 3 0
BBX 0 0 0 0
BITMAP
ENDCHAR
STARTCHAR exclamdown
ENCODING 161
SWIDTH 242 0
DWIDTH 3 0
BBX 1 10 1 -3
BITMAP
80
80
00
80
80
80
80
80
80
80
ENDCHAR
STARTCHAR cent
ENCODING 162
SWIDTH 530 0
DWIDTH 8 0
BBX 6 9 1 0
BITMAP
10
78
D4
90
90
90
D4
78
10
ENDCHAR
STARTCHAR sterling
ENCODING 163
SWIDTH 530 0
DWIDTH 8 0
BBX 6 10 1 0
BITMAP
38
44
40
60
20
F8
20
20
44
FC
ENDCHAR
STARTCHAR currency
ENCODING 164
SWIDTH 530 0
DWIDTH 8 0
BBX 6 8 1 1
BITMAP
84
78
CC
84
84
CC
78
84
ENDCHAR
STARTCHAR yen
ENCODING 165
SWIDTH 530 0
DWIDTH 8 0
BBX 7 10 1 0
BITMAP
EE
44
64
28
7C
10
7C
10
10
7C
ENDCHAR
STARTCHAR brokenbar
ENCODING 166
SWIDTH 228 0
DWIDTH 3 0
BBX 1 10 1 0
BITMAP
80
80
80
80
00
00
80
80
80
80
ENDCHAR
STARTCHAR section
ENCODING 167
SWIDTH 554 0
DWIDTH 8 0
BBX 7 12 0 -2
BITMAP
38
4C
60
B0
8C
C6
62
1A
0C
04
64
38
ENDCHAR
STARTCHAR dieresis
ENCODING 168
SWIDTH 400 0
DWIDTH 6 0
BBX 3 2 1 8
BITMAP
A0
A0
ENDCHAR
STARTCHAR copyright
ENCODING 169
SWIDTH 818 0
DWIDTH 12 0
BBX 11 10 0 0
BITMAP
1F00
2080
4F40
9920
9020
9020
9920
4E40
2080
1F00
ENDCHAR
STARTCHAR ordfeminine
ENCODING 170
SWIDTH 390 0
DWIDTH 6 0
BBX 4 5 1 4
BITMAP
C0
20
60
A0
D0
ENDCHAR
STARTCHAR guillemotleft
ENCODING 171
SWIDTH 442 0
DWIDTH 6 0
BBX 6 5 0 1
BITMAP
24
48
D8
48
24
ENDCHAR
STARTCHAR logicalnot
ENCODING 172
SWIDTH 570 0
DWIDTH 8 0
BBX 7 4 0 1
BITMAP
FE
02
02
02
ENDCHAR
STARTCHAR hyphen
ENCODING 173
SWIDTH 392 0
DWIDTH 5 0
BBX 3 1 1 3
BITMAP
E0
ENDCHAR
STARTCHAR registered
ENCODING 174
SWIDTH 818 0
DWIDTH 12 0
BBX 11 10 0 0
BITMAP
1F00
2080
5E40
8920
8920
8A20
8A20
5940
2080
1F00
ENDCHAR
STARTCHAR macron
ENCODING 175
SWIDTH 400 0
DWIDTH 6 0
BBX 4 1 1 8
BITMAP
F0
ENDCHAR
STARTCHAR degree
ENCODING 176
SWIDTH 350 0
DWIDTH 5 0
BBX 4 4 0 6
BITMAP
60
90
90
60
ENDCHAR
STARTCHAR plusminus
ENCODING 177
SWIDTH 570 0
DWIDTH 8 0
BBX 7 8 0 0
BITMAP
10
10
10
FE
10
10
10
FE
ENDCHAR
STARTCHAR twosuperior
ENCODING 178
SWIDTH 380 0
DWIDTH 6 0
BBX 4 6 1 4
BITMAP
60
90
20
40
80
F0
ENDCHAR
STARTCHAR threesuperior
ENCODING 179
SWIDTH 380 0
DWIDTH 6 0
BBX 4 6 1 4
BITMAP
60
90
60
10
90
60
ENDCHAR
STARTCHAR acute
ENCODING 180
SWIDTH 400 0
DWIDTH 6 0
BBX 3 2 1 8
BITMAP
60
80
ENDCHAR
STARTCHAR mu
ENCODING 181
SWIDTH 606 0
DWIDTH 9 0
BBX 7 10 1 -3
BITMAP
CC
44
44
44
44
6C
76
40
40
40
ENDCHAR
STARTCHAR paragraph
ENCODING 182
SWIDTH 555 0
DWIDTH 8 0
BBX 6 12 1 -2
BITMAP
6C
E8
E8
E8
E8
68
08
08
08
08
08
18
ENDCHAR
STARTCHAR periodcentered
ENCODING 183
SWIDTH 265 0
DWIDTH 4 0
BBX 1 2 1 3
BITMAP
80
80
ENDCHAR
STARTCHAR cedilla
ENCODING 184
SWIDTH 400 0
DWIDTH 6 0
BBX 2 3 2 -3
BITMAP
80
40
C0
ENDCHAR
STARTCHAR onesuperior
ENCODING 185
SWIDTH 380 0
DWIDTH 6 0
BBX 3 6 1 4
BITMAP
40
C0
40
40
40
E0
ENDCHAR
STARTCHAR ordmasculine
ENCODING 186
SWIDTH 398 0
DWIDTH 6 0
BBX 4 5 1 4
BITMAP
60
90
90
90
60
ENDCHAR
STARTCHAR guillemotright
ENCODING 187
SWIDTH 442 0
DWIDTH 6 0
BBX 6 5 0 1
BITMAP
90
48
6C
48
90
ENDCHAR
STARTCHAR onequarter
ENCODING 188
SWIDTH 860 0
DWIDTH 12 0
BBX 10 10 1 0
BITMAP
4100
C200
4200
4400
4900
E900
1280
2280
27C0
4080
ENDCHAR
STARTCHAR onehalf
ENCODING 189
SWIDTH 860 0
DWIDTH 12 0
BBX 10 10 1 0
BITMAP
4100
C200
4200
4400
4980
EA40
1080
2100
2200
43C0
ENDCHAR
STARTCHAR threequarters
ENCODING 190
SWIDTH 860 0
DWIDTH 12 0
BBX 11 10 1 0
BITMAP
6080
9100
6100
1200
9480
64C0
0940
1140
13E0
2040
ENDCHAR
STARTCHAR questiondown
ENCODING 191
SWIDTH 389 0
DWIDTH 6 0
BBX 5 10 0 -3
BITMAP
20
20
00
60
10
30
60
C0
98
70
ENDCHAR
STARTCHAR Agrave
ENCODING 192
SWIDTH 635 0
DWIDTH 9 0
BBX 9 12 0 0
BITMAP
1800
0400
0000
0800
0800
1400
1400
2200
3E00
4100
4100
E380
ENDCHAR
STARTCHAR Aacute
ENCODING 193
SWIDTH 635 0
DWIDTH 9 0
BBX 9 12 0 0
BITMAP
0C00
1000
0000
0800
0800
1400
1400
2200
3E00
4100
4100
E380
ENDCHAR
STARTCHAR Acircumflex
ENCODING 194
SWIDTH 635 0
DWIDTH 9 0
BBX 9 12 0 0
BITMAP
0800
1400
0000
0800
0800
1400
1400
2200
3E00
4100
4100
E380
ENDCHAR
STARTCHAR Atilde
ENCODING 195
SWIDTH 635 0
DWIDTH 9 0
BBX 9 12 0 0
BITMAP
1A00
2C00
0000
0800
0800
1400
1400
2200
3E00
4100
4100
E380
ENDCHAR
STARTCHAR Adieresis
ENCODING 196
SWIDTH 635 0
DWIDTH 9 0
BBX 9 12 0 0
BITMAP
1400
1400
0000
0800
0800
1400
1400
2200
3E00
4100
4100
E380
ENDCHAR
STARTCHAR Aring
ENCODING 197
SWIDTH 627 0
DWIDTH 9 0
BBX 9 12 0 0
BITMAP
1800
2400
1800
0800
0800
1400
1400
2200
3E00
4100
4100
E380
ENDCHAR
STARTCHAR AE
ENCODING 198
SWIDTH 876 0
DWIDTH 13 0
BBX 12 10 0 0
BITMAP
0FF0
0610
0A00
0A20
13E0
1E20
2200
2210
4210
E7F0
ENDCHAR
STARTCHAR Ccedilla
ENCODING 199
SWIDTH 680 0
DWIDTH 10 0
BBX 8 13 1 -3
BITMAP
3E
43
C1
80
80
80
80
C1
43
3E
10
08
18
ENDCHAR
STARTCHAR Egrave
ENCODING 200
SWIDTH 606 0
DWIDTH 9 0
BBX 7 12 1 0
BITMAP
60
10
00
FE
42
40
44
7C
44
40
42
FE
ENDCHAR
STARTCHAR Eacute
ENCODING 201
SWIDTH 606 0
DWIDTH 9 0
BBX 7 12 1 0
BITMAP
18
20
00
FE
42
40
44
7C
44
40
42
FE
ENDCHAR
STARTCHAR Ecircumflex
ENCODING 202
SWIDTH 606 0
DWIDTH 9 0
BBX 7 12 1 0
BITMAP
10
28
00
FE
42
40
44
7C
44
40
42
FE
ENDCHAR
STARTCHAR Edieresis
ENCODING 203
SWIDTH 606 0
DWIDTH 9 0
BBX 7 12 1 0
BITMAP
50
50
00
FE
42
40
44
7C
44
40
42
FE
ENDCHAR
STARTCHAR Igrave
ENCODING 204
SWIDTH 349 0
DWIDTH 5 0
BBX 3 12 1 0
BITMAP
C0
20
00
E0
40
40
40
40
40
40
40
E0
ENDCHAR
STARTCHAR Iacute
ENCODING 205
SWIDTH 349 0
DWIDTH 5 0
BBX 3 12 1 0
BITMAP
60
80
00
E0
40
40
40
40
40
40
40
E0
ENDCHAR
STARTCHAR Icircumflex
ENCODING 206
SWIDTH 349 0
DWIDTH 5 0
BBX 3 12 1 0
BITMAP
40
A0
00
E0
40
40
40
40
40
40
40
E0
ENDCHAR
STARTCHAR Idieresis
ENCODING 207
SWIDTH 349 0
DWIDTH 5 0
BBX 3 12 1 0
BITMAP
A0
A0
00
E0
40
40
40
40
40
40
40
E0
ENDCHAR
STARTCHAR Eth
ENCODING 208
SWIDTH 785 0
DWIDTH 11 0
BBX 9 10 1 0
BITMAP
FE00
4100
4180
4080
F080
4080
4080
4180
4100
FE00
ENDCHAR
STARTCHAR Ntilde
ENCODING 209
SWIDTH 780 0
DWIDTH 12 0
BBX 10 12 1 0
BITMAP
1A00
2C00
0000
C1C0
6080
5080
4880
4880
4480
4280
4180
E080
ENDCHAR
STARTCHAR Ograve
ENCODING 210
SWIDTH 762 0
DWIDTH 11 0
BBX 9 12 1 0
BITMAP
3000
0800
0000
3E00
4100
C180
8080
8080
8080
C180
4100
3E00
ENDCHAR
STARTCHAR Oacute
ENCODING 211
SWIDTH 762 0
DWIDTH 11 0
BBX 9 12 1 0
BITMAP
0C00
1000
0000
3E00
4100
C180
8080
8080
8080
C180
4100
3E00
ENDCHAR
STARTCHAR Ocircumflex
ENCODING 212
SWIDTH 762 0
DWIDTH 11 0
BBX 9 12 1 0
BITMAP
0800
1400
0000
3E00
4100
C180
8080
8080
8080
C180
4100
3E00
ENDCHAR
STARTCHAR Otilde
ENCODING 213
SWIDTH 762 0
DWIDTH 11 0
BBX 9 12 1 0
BITMAP
1A00
2C00
0000
3E00
4100
C180
8080
8080
8080
C180
4100
3E00
ENDCHAR
STARTCHAR Odieresis
ENCODING 214
SWIDTH 762 0
DWIDTH 11 0
BBX 9 12 1 0
BITMAP
1400
1400
0000
3E00
4100
C180
8080
8080
8080
C180
4100
3E00
ENDCHAR
STARTCHAR multiply
ENCODING 215
SWIDTH 570 0
DWIDTH 8 0
BBX 7 7 0 0
BITMAP
82
44
28
10
28
44
82
ENDCHAR
STARTCHAR Oslash
ENCODING 216
SWIDTH 762 0
DWIDTH 11 0
BBX 9 10 1 0
BITMAP
3E80
4100
C380
8480
8880
9080
A080
C180
4100
BE00
ENDCHAR
STARTCHAR Ugrave
ENCODING 217
SWIDTH 791 0
DWIDTH 11 0
BBX 9 12 1 0
BITMAP
3000
0800
0000
E380
4100
4100
4100
4100
4100
4100
6300
3E00
ENDCHAR
STARTCHAR Uacute
ENCODING 218
SWIDTH 791 0
DWIDTH 11 0
BBX 9 12 1 0
BITMAP
0C00
1000
0000
E380
4100
4100
4100
4100
4100
4100
6300
3E00
ENDCHAR
STARTCHAR Ucircumflex
ENCODING 219
SWIDTH 791 0
DWIDTH 11 0
BBX 9 12 1 0
BITMAP
0800
1400
0000
E380
4100
4100
4100
4100
4100
4100
6300
3E00
ENDCHAR
STARTCHAR Udieresis
ENCODING 220
SWIDTH 791 0
DWIDTH 11 0
BBX 9 12 1 0
BITMAP
1400
1400
0000
E380
4100
4100
4100
4100
4100
4100
6300
3E00
ENDCHAR
STARTCHAR Yacute
ENCODING 221
SWIDTH 588 0
DWIDTH 9 0
BBX 9 12 0 0
BITMAP
0600
0800
0000
E380
4100
2200
1400
1400
0800
0800
0800
1C00
ENDCHAR
STARTCHAR Thorn
ENCODING 222
SWIDTH 593 0
DWIDTH 9 0
BBX 7 10 1 0
BITMAP
E0
40
7C
46
42
42
46
7C
40
E0
ENDCHAR
STARTCHAR germandbls
ENCODING 223
SWIDTH 601 0
DWIDTH 9 0
BBX 7 11 1 0
BITMAP
38
44
44
48
50
58
4C
46
42
52
DC
ENDCHAR
STARTCHAR agrave
ENCODING 224
SWIDTH 523 0
DWIDTH 8 0
BBX 6 10 1 0
BITMAP
60
10
00
70
D8
08
78
88
D8
6C
ENDCHAR
STARTCHAR aacute
ENCODING 225
SWIDTH 523 0
DWIDTH 8 0
BBX 6 10 1 0
BITMAP
18
20
00
70
D8
08
78
88
D8
6C
ENDCHAR
STARTCHAR acircumflex
ENCODING 226
SWIDTH 523 0
DWIDTH 8 0
BBX 6 10 1 0
BITMAP
20
50
00
70
D8
08
78
88
D8
6C
ENDCHAR
STARTCHAR atilde
ENCODING 227
SWIDTH 523 0
DWIDTH 8 0
BBX 6 10 1 0
BITMAP
68
B0
00
70
D8
08
78
88
D8
6C
ENDCHAR
STARTCHAR adieresis
ENCODING 228
SWIDTH 523 0
DWIDTH 8 0
BBX 6 10 1 0
BITMAP
50
50
00
70
D8
08
78
88
D8
6C
ENDCHAR
STARTCHAR aring
ENCODING 229
SWIDTH 523 0
DWIDTH 8 0
BBX 6 11 1 0
BITMAP
30
48
30
00
70
D8
08
78
88
D8
6C
ENDCHAR
STARTCHAR ae
ENCODING 230
SWIDTH 797 0
DWIDTH 12 0
BBX 10 7 1 0
BITMAP
7380
DCC0
0840
7FC0
8800
DC40
6780
ENDCHAR
STARTCHAR ccedilla
ENCODING 231
SWIDTH 496 0
DWIDTH 7 0
BBX 5 10 1 -3
BITMAP
70
D8
80
80
80
C8
70
20
10
30
ENDCHAR
STARTCHAR egrave
ENCODING 232
SWIDTH 514 0
DWIDTH 8 0
BBX 6 10 1 0
BITMAP
60
10
00
78
CC
84
FC
80
C4
78
ENDCHAR
STARTCHAR eacute
ENCODING 233
SWIDTH 514 0
DWIDTH 8 0
BBX 6 10 1 0
BITMAP
18
20
00
78
CC
84
FC
80
C4
78
ENDCHAR
STARTCHAR ecircumflex
ENCODING 234
SWIDTH 514 0
DWIDTH 8 0
BBX 6 10 1 0
BITMAP
20
50
00
78
CC
84
FC
80
C4
78
ENDCHAR
STARTCHAR edieresis
ENCODING 235
SWIDTH 514 0
DWIDTH 8 0
BBX 6 10 1 0
BITMAP
50
50
00
78
CC
84
FC
80
C4
78
ENDCHAR
STARTCHAR igrave
ENCODING 236
SWIDTH 291 0
DWIDTH 5 0
BBX 3 10 1 0
BITMAP
C0
20
00
C0
40
40
40
40
40
E0
ENDCHAR
STARTCHAR iacute
ENCODING 237
SWIDTH 291 0
DWIDTH 5 0
BBX 3 10 1 0
BITMAP
60
80
00
C0
40
40
40
40
40
E0
ENDCHAR
STARTCHAR icircumflex
ENCODING 238
SWIDTH 291 0
DWIDTH 5 0
BBX 3 10 1 0
BITMAP
40
A0
00
C0
40
40
40
40
40
E0
ENDCHAR
STARTCHAR idieresis
ENCODING 239
SWIDTH 291 0
DWIDTH 5 0
BBX 3 10 1 0
BITMAP
A0
A0
00
C0
40
40
40
40
40
E0
ENDCHAR
STARTCHAR eth
ENCODING 240
SWIDTH 577 0
DWIDTH 8 0
BBX 6 10 1 0
BITMAP
68
30
48
78
CC
84
84
84
CC
78
ENDCHAR
STARTCHAR ntilde
ENCODING 241
SWIDTH 619 0
DWIDTH 9 0
BBX 7 10 1 0
BITMAP
34
58
00
D8
6C
44
44
44
44
EE
ENDCHAR
STARTCHAR ograve
ENCODING 242
SWIDTH 577 0
DWIDTH 8 0
BBX 6 10 1 0
BITMAP
60
10
00
78
CC
84
84
84
CC
78
ENDCHAR
STARTCHAR oacute
ENCODING 243
SWIDTH 577 0
DWIDTH 8 0
BBX 6 10 1 0
BITMAP
18
20
00
78
CC
84
84
84
CC
78
ENDCHAR
STARTCHAR ocircumflex
ENCODING 244
SWIDTH 577 0
DWIDTH 8 0
BBX 6 10 1 0
BITMAP
20
50
00
78
CC
84
84
84
CC
78
ENDCHAR
STARTCHAR otilde
ENCODING 245
SWIDTH 577 0
DWIDTH 8 0
BBX 6 10 1 0
BITMAP
68
B0
00
78
CC
84
84
84
CC
78
ENDCHAR
STARTCHAR odieresis
ENCODING 246
SWIDTH 577 0
DWIDTH 8 0
BBX 6 10 1 0
BITMAP
50
50
00
78
CC
84
84
84
CC
78
ENDCHAR
STARTCHAR divide
ENCODING 247
SWIDTH 570 0
DWIDTH 8 0
BBX 7 7 0 0
BITMAP
10
10
00
FE
00
10
10
ENDCHAR
STARTCHAR oslash
ENCODING 248
SWIDTH 577 0
DWIDTH 8 0
BBX 6 9 1 -1
BITMAP
04
78
CC
94
A4
A4
CC
78
80
ENDCHAR
STARTCHAR ugrave
ENCODING 249
SWIDTH 606 0
DWIDTH 9 0
BBX 7 10 1 0
BITMAP
60
10
00
CC
44
44
44
44
6C
36
ENDCHAR
STARTCHAR uacute
ENCODING 250
SWIDTH 606 0
DWIDTH 9 0
BBX 7 10 1 0
BITMAP
18
20
00
CC
44
44
44
44
6C
36
ENDCHAR
STARTCHAR ucircumflex
ENCODING 251
SWIDTH 606 0
DWIDTH 9 0
BBX 7 10 1 0
BITMAP
10
28
00
CC
44
44
44
44
6C
36
ENDCHAR
STARTCHAR udieresis
ENCODING 252
SWIDTH 606 0
DWIDTH 9 0
BBX 7 10 1 0
BITMAP
28
28
00
CC
44
44
44
44
6C
36
ENDCHAR
STARTCHAR yacute
ENCODING 253
SWIDTH 506 0
DWIDTH 7 0
BBX 7 13 0 -3
BITMAP
0C
10
00
EE
44
64
28
38
10
10
20
A0
C0
ENDCHAR
STARTCHAR thorn
ENCODING 254
SWIDTH 606 0
DWIDTH 8 0
BBX 7 13 0 -3
BITMAP
C0
40
40
5C
66
42
42
42
66
5C
40
40
E0
ENDCHAR
STARTCHAR ydieresis
ENCODING 255
SWIDTH 506 0
DWIDTH 7 0
BBX 7 13 0 -3
BITMAP
28
28
00
EE
44
64
28
38
10
10
20
A0
C0
ENDCHAR
STARTCHAR Amacron
ENCODING 256
SWIDTH 635 0
DWIDTH 9 0
BBX 9 12 0 0
BITMAP
1E00
0000
0800
0800
1400
1400
2200
2200
3E00
4100
4100
E380
ENDCHAR
STARTCHAR amacron
ENCODING 257
SWIDTH 523 0
DWIDTH 8 0
BBX 6 9 1 0
BITMAP
78
00
70
D8
08
78
88
D8
6C
ENDCHAR
STARTCHAR Abreve
ENCODING 258
SWIDTH 635 0
DWIDTH 9 0
BBX 9 13 0 0
BITMAP
2200
1C00
0000
0800
0800
1400
1400
2200
2200
3E00
4100
4100
E380
ENDCHAR
STARTCHAR abreve
ENCODING 259
SWIDTH 523 0
DWIDTH 8 0
BBX 6 10 1 0
BITMAP
88
70
00
70
D8
08
78
88
D8
6C
ENDCHAR
STARTCHAR Aogonek
ENCODING 260
SWIDTH 635 0
DWIDTH 9 0
BBX 9 13 0 -3
BITMAP
0800
0800
1400
1400
2200
2200
3E00
4100
4100
E380
0800
1000
1800
ENDCHAR
STARTCHAR aogonek
ENCODING 261
SWIDTH 523 0
DWIDTH 8 0
BBX 6 10 1 -3
BITMAP
70
D8
08
78
88
D8
6C
10
20
30
ENDCHAR
STARTCHAR Cacute
ENCODING 262
SWIDTH 684 0
DWIDTH 10 0
BBX 8 13 1 0
BITMAP
0C
10
00
3E
43
C1
80
80
80
80
C1
43
3E
ENDCHAR
STARTCHAR cacute
ENCODING 263
SWIDTH 496 0
DWIDTH 7 0
BBX 5 10 1 0
BITMAP
18
20
00
70
D8
80
80
80
C8
70
ENDCHAR
STARTCHAR Ccircumflex
ENCODING 264
SWIDTH 684 0
DWIDTH 10 0
BBX 8 13 1 0
BITMAP
08
14
00
3E
43
C1
80
80
80
80
C1
43
3E
ENDCHAR
STARTCHAR ccircumflex
ENCODING 265
SWIDTH 496 0
DWIDTH 7 0
BBX 5 10 1 0
BITMAP
20
50
00
70
D8
80
80
80
C8
70
ENDCHAR
STARTCHAR Cdotaccent
ENCODING 266
SWIDTH 684 0
DWIDTH 10 0
BBX 8 13 1 0
BITMAP
08
08
00
3E
43
C1
80
80
80
80
C1
43
3E
ENDCHAR
STARTCHAR cdotaccent
ENCODING 267
SWIDTH 496 0
DWIDTH 7 0
BBX 5 10 1 0
BITMAP
20
20
00
70
D8
80
80
80
C8
70
ENDCHAR
STARTCHAR Ccaron
ENCODING 268
SWIDTH 684 0
DWIDTH 10 0
BBX 8 13 1 0
BITMAP
14
08
00
3E
43
C1
80
80
80
80
C1
43
3E
ENDCHAR
STARTCHAR ccaron
ENCODING 269
SWIDTH 496 0
DWIDTH 7 0
BBX 5 10 1 0
BITMAP
50
20
00
70
D8
80
80
80
C8
70
ENDCHAR
STARTCHAR Dcaron
ENCODING 270
SWIDTH 779 0
DWIDTH 11 0
BBX 9 13 1 0
BITMAP
1400
0800
0000
FE00
4100
4180
4080
4080
4080
4080
4180
4100
FE00
ENDCHAR
STARTCHAR dcaron
ENCODING 271
SWIDTH 846 0
DWIDTH 13 0
BBX 11 11 1 0
BITMAP
0C00
0460
0420
0420
7440
CC00
8400
8400
8400
CC00
7600
ENDCHAR
STARTCHAR Dcroat
ENCODING 272
SWIDTH 785 0
DWIDTH 11 0
BBX 9 10 1 0
BITMAP
FE00
4100
4180
4080
F080
4080
4080
4180
4100
FE00
ENDCHAR
STARTCHAR dcroat
ENCODING 273
SWIDTH 598 0
DWIDTH 9 0
BBX 7 11 1 0
BITMAP
0C
04
0E
04
74
CC
84
84
84
CC
76
ENDCHAR
STARTCHAR Emacron
ENCODING 274
SWIDTH 606 0
DWIDTH 9 0
BBX 7 12 1 0
BITMAP
78
00
FE
42
40
44
7C
44
40
42
42
FE
ENDCHAR
STARTCHAR emacron
ENCODING 275
SWIDTH 514 0
DWIDTH 8 0
BBX 6 9 1 0
BITMAP
78
00
78
CC
84
FC
80
C4
78
ENDCHAR
STARTCHAR Ebreve
ENCODING 276
SWIDTH 606 0
DWIDTH 9 0
BBX 7 13 1 0
BITMAP
44
38
00
FE
42
40
44
7C
44
40
42
42
FE
ENDCHAR
STARTCHAR ebreve
ENCODING 277
SWIDTH 514 0
DWIDTH 8 0
BBX 6 10 1 0
BITMAP
44
38
00
78
CC
84
FC
80
C4
78
ENDCHAR
STARTCHAR Edotaccent
ENCODING 278
SWIDTH 606 0
DWIDTH 9 0
BBX 7 13 1 0
BITMAP
10
10
00
FE
42
40
44
7C
44
40
42
42
FE
ENDCHAR
STARTCHAR edotaccent
ENCODING 279
SWIDTH 514 0
DWIDTH 8 0
BBX 6 10 1 0
BITMAP
10
10
00
78
CC
84
FC
80
C4
78
ENDCHAR
STARTCHAR Eogonek
ENCODING 280
SWIDTH 606 0
DWIDTH 9 0
BBX 7 13 1 -3
BITMAP
FE
42
40
44
7C
44
40
42
42
FE
10
20
30
ENDCHAR
STARTCHAR eogonek
ENCODING 281
SWIDTH 514 0
DWIDTH 8 0
BBX 6 10 1 -3
BITMAP
78
CC
84
FC
80
C4
78
10
20
30
ENDCHAR
STARTCHAR Ecaron
ENCODING 282
SWIDTH 606 0
DWIDTH 9 0
BBX 7 13 1 0
BITMAP
28
10
00
FE
42
40
44
7C
44
40
42
42
FE
ENDCHAR
STARTCHAR ecaron
ENCODING 283
SWIDTH 514 0
DWIDTH 8 0
BBX 6 10 1 0
BITMAP
28
10
00
78
CC
84
FC
80
C4
78
ENDCHAR
STARTCHAR Gcircumflex
ENCODING 284
SWIDTH 734 0
DWIDTH 11 0
BBX 9 13 1 0
BITMAP
0800
1400
0000
3E00
4300
C100
8000
8000
8780
8100
C100
4100
3E00
ENDCHAR
STARTCHAR gcircumflex
ENCODING 285
SWIDTH 520 0
DWIDTH 8 0
BBX 7 13 1 -3
BITMAP
10
28
00
7E
C8
84
CC
78
40
7C
86
C2
7C
ENDCHAR
STARTCHAR Gbreve
ENCODING 286
SWIDTH 734 0
DWIDTH 11 0
BBX 9 13 1 0
BITMAP
2200
1C00
0000
3E00
4300
C100
8000
8000
8780
8100
C100
4100
3E00
ENDCHAR
STARTCHAR gbreve
ENCODING 287
SWIDTH 520 0
DWIDTH 8 0
BBX 7 13 1 -3
BITMAP
44
38
00
7E
C8
84
CC
78
40
7C
86
C2
7C
ENDCHAR
STARTCHAR Gdotaccent
ENCODING 288
SWIDTH 734 0
DWIDTH 11 0
BBX 9 13 1 0
BITMAP
0800
0800
0000
3E00
4300
C100
8000
8000
8780
8100
C100
4100
3E00
ENDCHAR
STARTCHAR gdotaccent
ENCODING 289
SWIDTH 520 0
DWIDTH 8 0
BBX 7 13 1 -3
BITMAP
10
10
00
7E
C8
84
CC
78
40
7C
86
C2
7C
ENDCHAR
STARTCHAR Gcommaaccent
ENCODING 290
SWIDTH 734 0
DWIDTH 11 0
BBX 9 15 1 -5
BITMAP
3E00
4300
C100
8000
8000
8780
8100
C100
4100
3E00
0000
1800
0800
0800
1000
ENDCHAR
STARTCHAR gcommaaccent
ENCODING 291
SWIDTH 520 0
DWIDTH 8 0
BBX 7 15 1 -3
BITMAP
10
20
20
30
00
7E
C8
84
CC
78
40
7C
86
C2
7C
ENDCHAR
STARTCHAR Hcircumflex
ENCODING 292
SWIDTH 798 0
DWIDTH 11 0
BBX 9 13 1 0
BITMAP
0800
1400
0000
E380
4100
4100
4100
7F00
4100
4100
4100
4100
E380
ENDCHAR
STARTCHAR hcircumflex
ENCODING 293
SWIDTH 607 0
DWIDTH 9 0
BBX 7 14 1 0
BITMAP
20
50
00
C0
40
40
40
58
6C
44
44
44
44
EE
ENDCHAR
STARTCHAR Hbar
ENCODING 294
SWIDTH 798 0
DWIDTH 11 0
BBX 9 10 1 0
BITMAP
E380
4100
FF80
4100
7F00
4100
4100
4100
4100
E380
ENDCHAR
STARTCHAR hbar
ENCODING 295
SWIDTH 607 0
DWIDTH 9 0
BBX 7 11 1 0
BITMAP
C0
40
70
40
58
6C
44
44
44
44
EE
ENDCHAR
STARTCHAR Itilde
ENCODING 296
SWIDTH 349 0
DWIDTH 5 0
BBX 5 13 0 0
BITMAP
68
B0
00
70
20
20
20
20
20
20
20
20
70
ENDCHAR
STARTCHAR itilde
ENCODING 297
SWIDTH 291 0
DWIDTH 5 0
BBX 5 10 0 0
BITMAP
68
B0
00
60
20
20
20
20
20
70
ENDCHAR
STARTCHAR Imacron
ENCODING 298
SWIDTH 349 0
DWIDTH 5 0
BBX 4 12 1 0
BITMAP
F0
00
E0
40
40
40
40
40
40
40
40
E0
ENDCHAR
STARTCHAR imacron
ENCODING 299
SWIDTH 291 0
DWIDTH 5 0
BBX 4 9 0 0
BITMAP
F0
00
60
20
20
20
20
20
70
ENDCHAR
STARTCHAR Ibreve
ENCODING 300
SWIDTH 349 0
DWIDTH 5 0
BBX 5 13 0 0
BITMAP
88
70
00
70
20
20
20
20
20
20
20
20
70
ENDCHAR
STARTCHAR ibreve
ENCODING 301
SWIDTH 291 0
DWIDTH 5 0
BBX 5 10 0 0
BITMAP
88
70
00
60
20
20
20
20
20
70
ENDCHAR
STARTCHAR Iogonek
ENCODING 302
SWIDTH 349 0
DWIDTH 5 0
BBX 3 13 1 -3
BITMAP
E0
40
40
40
40
40
40
40
40
E0
40
80
C0
ENDCHAR
STARTCHAR iogonek
ENCODING 303
SWIDTH 291 0
DWIDTH 5 0
BBX 3 13 1 -3
BITMAP
40
40
00
C0
40
40
40
40
40
E0
40
80
C0
ENDCHAR
STARTCHAR Idotaccent
ENCODING 304
SWIDTH 349 0
DWIDTH 5 0
BBX 3 13 1 0
BITMAP
40
40
00
E0
40
40
40
40
40
40
40
40
E0
ENDCHAR
STARTCHAR dotlessi
ENCODING 305
SWIDTH 291 0
DWIDTH 5 0
BBX 3 7 1 0
BITMAP
C0
40
40
40
40
40
E0
ENDCHAR
STARTCHAR IJ
ENCODING 306
SWIDTH 682 0
DWIDTH 10 0
BBX 8 12 1 -2
BITMAP
E7
42
42
42
42
42
42
42
42
E2
04
08
ENDCHAR
STARTCHAR ij
ENCODING 307
SWIDTH 556 0
DWIDTH 8 0
BBX 6 13 1 -3
BITMAP
44
44
00
CC
44
44
44
44
44
E4
04
08
10
ENDCHAR
STARTCHAR Jcircumflex
ENCODING 308
SWIDTH 350 0
DWIDTH 5 0
BBX 4 15 0 -2
BITMAP
20
50
00
70
20
20
20
20
20
20
20
20
20
40
80
ENDCHAR
STARTCHAR jcircumflex
ENCODING 309
SWIDTH 280 0
DWIDTH 3 0
BBX 4 13 -1 -3
BITMAP
20
50
00
60
20
20
20
20
20
20
20
40
80
ENDCHAR
STARTCHAR Kcommaaccent
ENCODING 310
SWIDTH 658 0
DWIDTH 10 0
BBX 9 15 1 -5
BITMAP
E700
4200
4400
4800
5000
7800
4C00
4600
4300
E180
0000
1800
0800
0800
1000
ENDCHAR
STARTCHAR kcommaaccent
ENCODING 311
SWIDTH 524 0
DWIDTH 8 0
BBX 7 16 1 -5
BITMAP
C0
40
40
40
4C
48
50
70
58
4C
E6
00
30
10
10
20
ENDCHAR
STARTCHAR kgreenlandic
ENCODING 312
SWIDTH 524 0
DWIDTH 8 0
BBX 7 7 1 0
BITMAP
4C
48
50
70
58
4C
E6
ENDCHAR
STARTCHAR Lacute
ENCODING 313
SWIDTH 568 0
DWIDTH 8 0
BBX 7 13 1 0
BITMAP
30
40
00
E0
40
40
40
40
40
40
42
42
FE
ENDCHAR
STARTCHAR lacute
ENCODING 314
SWIDTH 279 0
DWIDTH 5 0
BBX 4 14 1 0
BITMAP
30
40
00
C0
40
40
40
40
40
40
40
40
40
E0
ENDCHAR
STARTCHAR Lcommaaccent
ENCODING 315
SWIDTH 568 0
DWIDTH 8 0
BBX 7 15 1 -5
BITMAP
E0
40
40
40
40
40
40
42
42
FE
00
18
08
08
10
ENDCHAR
STARTCHAR lcommaaccent
ENCODING 316
SWIDTH 279 0
DWIDTH 5 0
BBX 3 16 1 -5
BITMAP
C0
40
40
40
40
40
40
40
40
40
E0
00
C0
40
40
80
ENDCHAR
STARTCHAR Lcaron
ENCODING 317
SWIDTH 818 0
DWIDTH 12 0
BBX 10 10 1 0
BITMAP
E0C0
4040
4040
4080
4000
4000
4000
4200
4200
FE00
ENDCHAR
STARTCHAR lcaron
ENCODING 318
SWIDTH 543 0
DWIDTH 9 0
BBX 7 11 1 0
BITMAP
C0
46
42
42
44
40
40
40
40
40
E0
ENDCHAR
STARTCHAR Ldot
ENCODING 319
SWIDTH 805 0
DWIDTH 12 0
BBX 9 10 1 0
BITMAP
E000
4000
4000
4000
4000
4080
4080
4200
4200
FE00
ENDCHAR
STARTCHAR ldot
ENCODING 320
SWIDTH 530 0
DWIDTH 9 0
BBX 6 11 1 0
BITMAP
C0
40
40
40
40
40
44
44
40
40
E0
ENDCHAR
STARTCHAR Lslash
ENCODING 321
SWIDTH 574 0
DWIDTH 8 0
BBX 7 10 1 0
BITMAP
E0
40
40
50
60
40
C0
42
42
FE
ENDCHAR
STARTCHAR lslash
ENCODING 322
SWIDTH 294 0
DWIDTH 5 0
BBX 3 11 1 0
BITMAP
C0
40
40
40
60
40
C0
40
40
40
E0
ENDCHAR
STARTCHAR Nacute
ENCODING 323
SWIDTH 780 0
DWIDTH 12 0
BBX 10 13 1 0
BITMAP
0600
0800
0000
C1C0
6080
7080
5880
4880
4480
4680
4380
4180
E080
ENDCHAR
STARTCHAR nacute
ENCODING 324
SWIDTH 619 0
DWIDTH 9 0
BBX 7 10 1 0
BITMAP
18
20
00
D8
6C
44
44
44
44
EE
ENDCHAR
STARTCHAR Ncommaaccent
ENCODING 325
SWIDTH 780 0
DWIDTH 12 0
BBX 10 15 1 -5
BITMAP
C1C0
6080
7080
5880
4880
4480
4680
4380
4180
E080
0000
0C00
0400
0400
0800
ENDCHAR
STARTCHAR ncommaaccent
ENCODING 326
SWIDTH 619 0
DWIDTH 9 0
BBX 7 12 1 -5
BITMAP
D8
6C
44
44
44
44
EE
00
30
10
10
20
ENDCHAR
STARTCHAR Ncaron
ENCODING 327
SWIDTH 780 0
DWIDTH 12 0
BBX 10 13 1 0
BITMAP
1400
0800
0000
C1C0
6080
7080
5880
4880
4480
4680
4380
4180
E080
ENDCHAR
STARTCHAR ncaron
ENCODING 328
SWIDTH 619 0
DWIDTH 9 0
BBX 7 10 1 0
BITMAP
28
10
00
D8
6C
44
44
44
44
EE
ENDCHAR
STARTCHAR napostrophe
ENCODING 329
SWIDTH 883 0
DWIDTH 13 0
BBX 11 10 1 0
BITMAP
C000
4000
4000
8D80
06C0
0440
0440
0440
0440
0EE0
ENDCHAR
STARTCHAR Eng
ENCODING 330
SWIDTH 780 0
DWIDTH 12 0
BBX 10 13 1 -3
BITMAP
C1C0
6080
7080
5880
4880
4480
4680
4380
4180
E080
0080
0100
0200
ENDCHAR
STARTCHAR eng
ENCODING 331
SWIDTH 619 0
DWIDTH 9 0
BBX 6 10 1 -3
BITMAP
D8
6C
44
44
44
44
E4
04
08
10
ENDCHAR
STARTCHAR Omacron
ENCODING 332
SWIDTH 762 0
DWIDTH 11 0
BBX 9 12 1 0
BITMAP
1E00
0000
3E00
4100
C180
8080
8080
8080
8080
C180
4100
3E00
ENDCHAR
STARTCHAR omacron
ENCODING 333
SWIDTH 577 0
DWIDTH 8 0
BBX 6 9 1 0
BITMAP
78
00
78
CC
84
84
84
CC
78
ENDCHAR
STARTCHAR Obreve
ENCODING 334
SWIDTH 762 0
DWIDTH 11 0
BBX 9 13 1 0
BITMAP
2200
1C00
0000
3E00
4100
C180
8080
8080
8080
8080
C180
4100
3E00
ENDCHAR
STARTCHAR obreve
ENCODING 335
SWIDTH 577 0
DWIDTH 8 0
BBX 6 10 1 0
BITMAP
44
38
00
78
CC
84
84
84
CC
78
ENDCHAR
STARTCHAR Ohungarumlaut
ENCODING 336
SWIDTH 762 0
DWIDTH 11 0
BBX 9 14 1 0
BITMAP
0900
1200
2400
0000
3E00
4100
C180
8080
8080
8080
8080
C180
4100
3E00
ENDCHAR
STARTCHAR ohungarumlaut
ENCODING 337
SWIDTH 577 0
DWIDTH 8 0
BBX 7 11 1 0
BITMAP
12
24
48
00
78
CC
84
84
84
CC
78
ENDCHAR
STARTCHAR OE
ENCODING 338
SWIDTH 1025 0
DWIDTH 15 0
BBX 13 10 1 0
BITMAP
3FF8
4308
C100
8110
81F0
8110
8100
C108
4308
3FF8
ENDCHAR
STARTCHAR oe
ENCODING 339
SWIDTH 882 0
DWIDTH 13 0
BBX 11 7 1 0
BITMAP
7BC0
CE60
8420
87E0
8400
CE20
7BC0
ENDCHAR
STARTCHAR Racute
ENCODING 340
SWIDTH 644 0
DWIDTH 9 0
BBX 8 13 1 0
BITMAP
0C
10
00
FC
46
42
42
44
7C
46
42
42
E3
ENDCHAR
STARTCHAR racute
ENCODING 341
SWIDTH 389 0
DWIDTH 6 0
BBX 5 10 1 0
BITMAP
18
20
00
D8
68
40
40
40
40
E0
ENDCHAR
STARTCHAR Rcommaaccent
ENCODING 342
SWIDTH 644 0
DWIDTH 9 0
BBX 8 15 1 -5
BITMAP
FC
46
42
42
44
7C
46
42
42
E3
00
18
08
08
10
ENDCHAR
STARTCHAR rcommaaccent
ENCODING 343
SWIDTH 389 0
DWIDTH 6 0
BBX 5 12 1 -5
BITMAP
D8
68
40
40
40
40
E0
00
60
20
20
40
ENDCHAR
STARTCHAR Rcaron
ENCODING 344
SWIDTH 644 0
DWIDTH 9 0
BBX 8 13 1 0
BITMAP
28
10
00
FC
46
42
42
44
7C
46
42
42
E3
ENDCHAR
STARTCHAR rcaron
ENCODING 345
SWIDTH 389 0
DWIDTH 6 0
BBX 5 10 1 0
BITMAP
50
20
00
D8
68
40
40
40
40
E0
ENDCHAR
STARTCHAR Sacute
ENCODING 346
SWIDTH 541 0
DWIDTH 8 0
BBX 6 13 1 0
BITMAP
18
20
00
78
CC
84
C0
60
18
0C
84
CC
78
ENDCHAR
STARTCHAR sacute
ENCODING 347
SWIDTH 436 0
DWIDTH 7 0
BBX 5 10 1 0
BITMAP
18
20
00
70
98
C0
70
18
88
F0
ENDCHAR
STARTCHAR Scircumflex
ENCODING 348
SWIDTH 541 0
DWIDTH 8 0
BBX 6 13 1 0
BITMAP
10
28
00
78
CC
84
C0
60
18
0C
84
CC
78
ENDCHAR
STARTCHAR scircumflex
ENCODING 349
SWIDTH 436 0
DWIDTH 7 0
BBX 5 10 1 0
BITMAP
20
50
00
70
98
C0
70
18
88
F0
ENDCHAR
STARTCHAR Scedilla
ENCODING 350
SWIDTH 541 0
DWIDTH 8 0
BBX 6 13 1 -3
BITMAP
78
CC
84
C0
60
18
0C
84
CC
78
20
10
30
ENDCHAR
STARTCHAR scedilla
ENCODING 351
SWIDTH 436 0
DWIDTH 7 0
BBX 5 10 1 -3
BITMAP
70
98
C0
70
18
88
F0
20
10
30
ENDCHAR
STARTCHAR Scaron
ENCODING 352
SWIDTH 541 0
DWIDTH 8 0
BBX 6 12 1 0
BITMAP
50
20
00
78
CC
84
C0
78
0C
84
CC
78
ENDCHAR
STARTCHAR scaron
ENCODING 353
SWIDTH 436 0
DWIDTH 7 0
BBX 5 10 1 0
BITMAP
50
20
00
70
98
C0
70
18
88
F0
ENDCHAR
STARTCHAR Tcommaaccent
ENCODING 354
SWIDTH 621 0
DWIDTH 9 0
BBX 9 13 0 -3
BITMAP
FF80
8880
0800
0800
0800
0800
0800
0800
0800
1C00
0800
0400
0C00
ENDCHAR
STARTCHAR tcommaaccent
ENCODING 355
SWIDTH 344 0
DWIDTH 4 0
BBX 4 12 0 -3
BITMAP
40
40
F0
40
40
40
40
40
30
20
10
30
ENDCHAR
STARTCHAR Tcaron
ENCODING 356
SWIDTH 621 0
DWIDTH 9 0
BBX 9 13 0 0
BITMAP
1400
0800
0000
FF80
8880
0800
0800
0800
0800
0800
0800
0800
1C00
ENDCHAR
STARTCHAR tcaron
ENCODING 357
SWIDTH 605 0
DWIDTH 8 0
BBX 7 10 0 0
BITMAP
06
42
42
F4
40
40
40
40
40
30
ENDCHAR
STARTCHAR Tbar
ENCODING 358
SWIDTH 621 0
DWIDTH 9 0
BBX 9 10 0 0
BITMAP
FF80
8880
0800
0800
1C00
0800
0800
0800
0800
1C00
ENDCHAR
STARTCHAR tbar
ENCODING 359
SWIDTH 344 0
DWIDTH 4 0
BBX 4 9 0 0
BITMAP
40
40
F0
40
40
70
40
40
30
ENDCHAR
STARTCHAR Utilde
ENCODING 360
SWIDTH 791 0
DWIDTH 11 0
BBX 9 13 1 0
BITMAP
1A00
2C00
0000
E380
4100
4100
4100
4100
4100
4100
4100
6300
3E00
ENDCHAR
STARTCHAR utilde
ENCODING 361
SWIDTH 606 0
DWIDTH 9 0
BBX 7 10 1 0
BITMAP
34
58
00
CC
44
44
44
44
6C
36
ENDCHAR
STARTCHAR Umacron
ENCODING 362
SWIDTH 791 0
DWIDTH 11 0
BBX 9 12 1 0
BITMAP
1E00
0000
E380
4100
4100
4100
4100
4100
4100
4100
6300
3E00
ENDCHAR
STARTCHAR umacron
ENCODING 363
SWIDTH 606 0
DWIDTH 9 0
BBX 7 9 1 0
BITMAP
78
00
CC
44
44
44
44
6C
36
ENDCHAR
STARTCHAR Ubreve
ENCODING 364
SWIDTH 791 0
DWIDTH 11 0
BBX 9 13 1 0
BITMAP
2200
1C00
0000
E380
4100
4100
4100
4100
4100
4100
4100
6300
3E00
ENDCHAR
STARTCHAR ubreve
ENCODING 365
SWIDTH 606 0
DWIDTH 9 0
BBX 7 10 1 0
BITMAP
44
38
00
CC
44
44
44
44
6C
36
ENDCHAR
STARTCHAR Uring
ENCODING 366
SWIDTH 791 0
DWIDTH 11 0
BBX 9 14 1 0
BITMAP
0C00
1200
0C00
0000
E380
4100
4100
4100
4100
4100
4100
4100
6300
3E00
ENDCHAR
STARTCHAR uring
ENCODING 367
SWIDTH 606 0
DWIDTH 9 0
BBX 7 11 1 0
BITMAP
30
48
30
00
CC
44
44
44
44
6C
36
ENDCHAR
STARTCHAR Uhungarumlaut
ENCODING 368
SWIDTH 791 0
DWIDTH 11 0
BBX 9 14 1 0
BITMAP
0900
1200
2400
0000
E380
4100
4100
4100
4100
4100
4100
4100
6300
3E00
ENDCHAR
STARTCHAR uhungarumlaut
ENCODING 369
SWIDTH 606 0
DWIDTH 9 0
BBX 7 11 1 0
BITMAP
12
24
48
00
CC
44
44
44
44
6C
36
ENDCHAR
STARTCHAR Uogonek
ENCODING 370
SWIDTH 791 0
DWIDTH 11 0
BBX 9 13 1 -3
BITMAP
E380
4100
4100
4100
4100
4100
4100
4100
6300
3E00
0800
1000
1800
ENDCHAR
STARTCHAR uogonek
ENCODING 371
SWIDTH 606 0
DWIDTH 9 0
BBX 7 10 1 -3
BITMAP
CC
44
44
44
44
6C
36
08
10
18
ENDCHAR
STARTCHAR Wcircumflex
ENCODING 372
SWIDTH 940 0
DWIDTH 15 0
BBX 15 13 0 0
BITMAP
0100
0280
0000
E10E
4104
6388
2288
2288
34D0
1450
1450
1860
0820
ENDCHAR
STARTCHAR wcircumflex
ENCODING 373
SWIDTH 768 0
DWIDTH 11 0
BBX 11 10 0 0
BITMAP
0400
0A00
0000
E4E0
4440
6640
2A80
3B80
1100
1100
ENDCHAR
STARTCHAR Ycircumflex
ENCODING 374
SWIDTH 588 0
DWIDTH 9 0
BBX 9 13 0 0
BITMAP
0800
1400
0000
E380
6100
2200
3200
1400
1C00
0800
0800
0800
1C00
ENDCHAR
STARTCHAR ycircumflex
ENCODING 375
SWIDTH 506 0
DWIDTH 7 0
BBX 7 13 0 -3
BITMAP
10
28
00
EE
44
64
28
38
10
10
20
A0
C0
ENDCHAR
STARTCHAR Ydieresis
ENCODING 376
SWIDTH 588 0
DWIDTH 9 0
BBX 9 12 0 0
BITMAP
1400
1400
0000
E380
4100
2200
1400
1400
0800
0800
0800
1C00
ENDCHAR
STARTCHAR Zacute
ENCODING 377
SWIDTH 610 0
DWIDTH 9 0
BBX 7 13 1 0
BITMAP
0C
10
00
FE
86
0C
08
18
30
20
62
C2
FE
ENDCHAR
STARTCHAR zacute
ENCODING 378
SWIDTH 480 0
DWIDTH 6 0
BBX 6 10 0 0
BITMAP
18
20
00
FC
88
10
20
40
84
FC
ENDCHAR
STARTCHAR Zdotaccent
ENCODING 379
SWIDTH 610 0
DWIDTH 9 0
BBX 7 13 1 0
BITMAP
10
10
00
FE
86
0C
08
18
30
20
62
C2
FE
ENDCHAR
STARTCHAR zdotaccent
ENCODING 380
SWIDTH 480 0
DWIDTH 6 0
BBX 6 10 0 0
BITMAP
20
20
00
FC
88
10
20
40
84
FC
ENDCHAR
STARTCHAR Zcaron
ENCODING 381
SWIDTH 610 0
DWIDTH 9 0
BBX 7 12 1 0
BITMAP
50
20
00
FE
84
08
10
10
20
42
82
FE
ENDCHAR
STARTCHAR zcaron
ENCODING 382
SWIDTH 480 0
DWIDTH 6 0
BBX 6 10 0 0
BITMAP
50
20
00
FC
88
10
20
40
84
FC
ENDCHAR
STARTCHAR uni0186
ENCODING 390
SWIDTH 684 0
DWIDTH 10 0
BBX 8 10 1 0
BITMAP
7C
C2
83
01
01
01
01
83
C2
7C
ENDCHAR
STARTCHAR uni0189
ENCODING 393
SWIDTH 785 0
DWIDTH 11 0
BBX 9 10 1 0
BITMAP
FE00
4100
4180
4080
F080
4080
4080
4180
4100
FE00
ENDCHAR
STARTCHAR uni018E
ENCODING 398
SWIDTH 606 0
DWIDTH 9 0
BBX 7 10 1 0
BITMAP
FE
84
84
04
44
7C
44
04
84
FE
ENDCHAR
STARTCHAR florin
ENCODING 402
SWIDTH 530 0
DWIDTH 8 0
BBX 6 12 1 -2
BITMAP
0C
10
10
10
7C
10
10
20
20
20
20
C0
ENDCHAR
STARTCHAR uni0197
ENCODING 407
SWIDTH 349 0
DWIDTH 5 0
BBX 3 10 1 0
BITMAP
E0
40
40
40
E0
40
40
40
40
E0
ENDCHAR
STARTCHAR uni019A
ENCODING 410
SWIDTH 279 0
DWIDTH 5 0
BBX 3 11 1 0
BITMAP
C0
40
40
40
40
E0
40
40
40
40
E0
ENDCHAR
STARTCHAR uni019D
ENCODING 413
SWIDTH 780 0
DWIDTH 12 0
BBX 11 13 0 -3
BITMAP
60E0
3040
3840
2C40
2440
2240
2340
21C0
20C0
2040
2000
4000
8000
ENDCHAR
STARTCHAR uni019F
ENCODING 415
SWIDTH 762 0
DWIDTH 11 0
BBX 9 10 1 0
BITMAP
3E00
4100
C180
8080
FF80
8080
8080
C180
4100
3E00
ENDCHAR
STARTCHAR Ohorn
ENCODING 416
SWIDTH 762 0
DWIDTH 11 0
BBX 10 10 1 0
BITMAP
3EC0
4140
C1C0
8080
8080
8080
8080
C180
4100
3E00
ENDCHAR
STARTCHAR ohorn
ENCODING 417
SWIDTH 577 0
DWIDTH 8 0
BBX 8 7 1 0
BITMAP
7B
CD
85
86
84
CC
78
ENDCHAR
STARTCHAR uni01A7
ENCODING 423
SWIDTH 541 0
DWIDTH 8 0
BBX 6 10 1 0
BITMAP
78
CC
84
0C
18
60
C0
84
CC
78
ENDCHAR
STARTCHAR uni01A8
ENCODING 424
SWIDTH 436 0
DWIDTH 7 0
BBX 5 7 1 0
BITMAP
70
C8
18
70
C0
88
78
ENDCHAR
STARTCHAR uni01AE
ENCODING 430
SWIDTH 621 0
DWIDTH 9 0
BBX 9 13 0 -3
BITMAP
FF80
8880
0800
0800
0800
0800
0800
0800
0800
0800
0800
0400
0200
ENDCHAR
STARTCHAR Uhorn
ENCODING 431
SWIDTH 791 0
DWIDTH 11 0
BBX 10 10 1 0
BITMAP
E3C0
4140
4140
4180
4100
4100
4100
4100
6300
3E00
ENDCHAR
STARTCHAR uhorn
ENCODING 432
SWIDTH 606 0
DWIDTH 9 0
BBX 9 7 1 0
BITMAP
CD80
4480
4480
4500
4400
6C00
3600
ENDCHAR
STARTCHAR uni01B5
ENCODING 437
SWIDTH 610 0
DWIDTH 9 0
BBX 7 10 1 0
BITMAP
FE
86
0C
08
38
30
20
62
C2
FE
ENDCHAR
STARTCHAR uni01B6
ENCODING 438
SWIDTH 480 0
DWIDTH 6 0
BBX 6 7 0 0
BITMAP
FC
88
10
38
40
84
FC
ENDCHAR
STARTCHAR uni01BB
ENCODING 443
SWIDTH 530 0
DWIDTH 8 0
BBX 6 10 1 0
BITMAP
78
CC
04
0C
FC
10
20
60
C4
FC
ENDCHAR
STARTCHAR uni01BC
ENCODING 444
SWIDTH 530 0
DWIDTH 8 0
BBX 6 10 1 0
BITMAP
FC
80
80
B8
CC
84
04
04
CC
78
ENDCHAR
STARTCHAR uni01C0
ENCODING 448
SWIDTH 228 0
DWIDTH 3 0
BBX 1 10 1 0
BITMAP
80
80
80
80
80
80
80
80
80
80
ENDCHAR
STARTCHAR uni01C2
ENCODING 450
SWIDTH 570 0
DWIDTH 8 0
BBX 7 10 0 -2
BITMAP
10
10
10
FE
10
10
FE
10
10
10
ENDCHAR
STARTCHAR uni01C3
ENCODING 451
SWIDTH 242 0
DWIDTH 3 0
BBX 1 10 1 0
BITMAP
80
80
80
80
80
80
80
00
80
80
ENDCHAR
STARTCHAR uni01CD
ENCODING 461
SWIDTH 635 0
DWIDTH 9 0
BBX 9 13 0 0
BITMAP
1400
0800
0000
0800
0800
1400
1400
2200
2200
3E00
4100
4100
E380
ENDCHAR
STARTCHAR uni01CE
ENCODING 462
SWIDTH 523 0
DWIDTH 8 0
BBX 6 10 1 0
BITMAP
50
20
00
70
D8
08
78
88
D8
6C
ENDCHAR
STARTCHAR uni01CF
ENCODING 463
SWIDTH 349 0
DWIDTH 5 0
BBX 3 13 1 0
BITMAP
A0
40
00
E0
40
40
40
40
40
40
40
40
E0
ENDCHAR
STARTCHAR uni01D0
ENCODING 464
SWIDTH 291 0
DWIDTH 5 0
BBX 3 10 1 0
BITMAP
A0
40
00
C0
40
40
40
40
40
E0
ENDCHAR
STARTCHAR uni01D1
ENCODING 465
SWIDTH 762 0
DWIDTH 11 0
BBX 9 13 1 0
BITMAP
1400
0800
0000
3E00
4100
C180
8080
8080
8080
8080
C180
4100
3E00
ENDCHAR
STARTCHAR uni01D2
ENCODING 466
SWIDTH 577 0
DWIDTH 8 0
BBX 6 10 1 0
BITMAP
28
10
00
78
CC
84
84
84
CC
78
ENDCHAR
STARTCHAR uni01D3
ENCODING 467
SWIDTH 791 0
DWIDTH 11 0
BBX 9 13 1 0
BITMAP
1400
0800
0000
E380
4100
4100
4100
4100
4100
4100
4100
6300
3E00
ENDCHAR
STARTCHAR uni01D4
ENCODING 468
SWIDTH 606 0
DWIDTH 9 0
BBX 7 10 1 0
BITMAP
28
10
00
CC
44
44
44
44
6C
36
ENDCHAR
STARTCHAR uni01D5
ENCODING 469
SWIDTH 791 0
DWIDTH 11 0
BBX 9 14 1 0
BITMAP
1E00
0000
1400
1400
0000
E380
4100
4100
4100
4100
4100
4100
6300
3E00
ENDCHAR
STARTCHAR uni01D6
ENCODING 470
SWIDTH 606 0
DWIDTH 9 0
BBX 7 12 1 0
BITMAP
3C
00
28
28
00
CC
44
44
44
44
6C
36
ENDCHAR
STARTCHAR uni01D7
ENCODING 471
SWIDTH 791 0
DWIDTH 11 0
BBX 9 15 1 0
BITMAP
0600
0800
0000
1400
1400
0000
E380
4100
4100
4100
4100
4100
4100
6300
3E00
ENDCHAR
STARTCHAR uni01D8
ENCODING 472
SWIDTH 606 0
DWIDTH 9 0
BBX 7 13 1 0
BITMAP
0C
10
00
28
28
00
CC
44
44
44
44
6C
36
ENDCHAR
STARTCHAR uni01D9
ENCODING 473
SWIDTH 791 0
DWIDTH 11 0
BBX 9 15 1 0
BITMAP
1400
0800
0000
1400
1400
0000
E380
4100
4100
4100
4100
4100
4100
6300
3E00
ENDCHAR
STARTCHAR uni01DA
ENCODING 474
SWIDTH 606 0
DWIDTH 9 0
BBX 7 13 1 0
BITMAP
28
10
00
28
28
00
CC
44
44
44
44
6C
36
ENDCHAR
STARTCHAR uni01DB
ENCODING 475
SWIDTH 791 0
DWIDTH 11 0
BBX 9 15 1 0
BITMAP
3000
0800
0000
1400
1400
0000
E380
4100
4100
4100
4100
4100
4100
6300
3E00
ENDCHAR
STARTCHAR uni01DC
ENCODING 476
SWIDTH 606 0
DWIDTH 9 0
BBX 7 13 1 0
BITMAP
60
10
00
28
28
00
CC
44
44
44
44
6C
36
ENDCHAR
STARTCHAR uni01DD
ENCODING 477
SWIDTH 514 0
DWIDTH 8 0
BBX 6 7 1 0
BITMAP
78
8C
04
FC
84
CC
78
ENDCHAR
STARTCHAR uni01DE
ENCODING 478
SWIDTH 635 0
DWIDTH 9 0
BBX 9 14 0 0
BITMAP
1E00
0000
1400
1400
0000
0800
0800
1400
1400
2200
3E00
4100
4100
E380
ENDCHAR
STARTCHAR uni01DF
ENCODING 479
SWIDTH 523 0
DWIDTH 8 0
BBX 6 12 1 0
BITMAP
78
00
50
50
00
70
D8
08
78
88
D8
6C
ENDCHAR
STARTCHAR uni01E0
ENCODING 480
SWIDTH 635 0
DWIDTH 9 0
BBX 9 15 0 0
BITMAP
1E00
0000
0800
0800
0000
0800
0800
1400
1400
2200
2200
3E00
4100
4100
E380
ENDCHAR
STARTCHAR uni01E1
ENCODING 481
SWIDTH 523 0
DWIDTH 8 0
BBX 6 12 1 0
BITMAP
78
00
20
20
00
70
D8
08
78
88
D8
6C
ENDCHAR
STARTCHAR uni01E2
ENCODING 482
SWIDTH 876 0
DWIDTH 13 0
BBX 12 12 0 0
BITMAP
0780
0000
0FF0
0610
0A00
0A20
13E0
1E20
2200
2210
4210
E7F0
ENDCHAR
STARTCHAR uni01E3
ENCODING 483
SWIDTH 797 0
DWIDTH 12 0
BBX 10 9 1 0
BITMAP
1E00
0000
7380
DCC0
0840
7FC0
8800
DC40
6780
ENDCHAR
STARTCHAR uni01E4
ENCODING 484
SWIDTH 734 0
DWIDTH 11 0
BBX 9 10 1 0
BITMAP
3E00
4300
C100
8000
8000
8780
8100
C380
4100
3E00
ENDCHAR
STARTCHAR uni01E5
ENCODING 485
SWIDTH 520 0
DWIDTH 8 0
BBX 7 10 1 -3
BITMAP
7E
C8
84
CC
78
40
7C
FE
C2
7C
ENDCHAR
STARTCHAR Gcaron
ENCODING 486
SWIDTH 734 0
DWIDTH 11 0
BBX 9 13 1 0
BITMAP
1400
0800
0000
3E00
4300
C100
8000
8000
8780
8100
C100
4100
3E00
ENDCHAR
STARTCHAR gcaron
ENCODING 487
SWIDTH 520 0
DWIDTH 8 0
BBX 7 13 1 -3
BITMAP
28
10
00
7E
C8
84
CC
78
40
7C
86
C2
7C
ENDCHAR
STARTCHAR uni01E8
ENCODING 488
SWIDTH 658 0
DWIDTH 10 0
BBX 9 13 1 0
BITMAP
1400
0800
0000
E700
4200
4400
4800
5000
7800
4C00
4600
4300
E180
ENDCHAR
STARTCHAR uni01E9
ENCODING 489
SWIDTH 524 0
DWIDTH 8 0
BBX 7 14 1 0
BITMAP
50
20
00
C0
40
40
40
4C
48
50
70
58
4C
E6
ENDCHAR
STARTCHAR uni01EA
ENCODING 490
SWIDTH 762 0
DWIDTH 11 0
BBX 9 13 1 -3
BITMAP
3E00
4100
C180
8080
8080
8080
8080
C180
4100
3E00
0800
1000
1800
ENDCHAR
STARTCHAR uni01EB
ENCODING 491
SWIDTH 577 0
DWIDTH 8 0
BBX 6 10 1 -3
BITMAP
78
CC
84
84
84
CC
78
10
20
30
ENDCHAR
STARTCHAR uni01EC
ENCODING 492
SWIDTH 762 0
DWIDTH 11 0
BBX 9 15 1 -3
BITMAP
1E00
0000
3E00
4100
C180
8080
8080
8080
8080
C180
4100
3E00
0800
1000
1800
ENDCHAR
STARTCHAR uni01ED
ENCODING 493
SWIDTH 577 0
DWIDTH 8 0
BBX 6 12 1 -3
BITMAP
78
00
78
CC
84
84
84
CC
78
10
20
30
ENDCHAR
STARTCHAR uni01F0
ENCODING 496
SWIDTH 280 0
DWIDTH 3 0
BBX 4 13 -1 -3
BITMAP
50
20
00
60
20
20
20
20
20
20
20
40
80
ENDCHAR
STARTCHAR uni01F4
ENCODING 500
SWIDTH 734 0
DWIDTH 11 0
BBX 9 13 1 0
BITMAP
0600
0800
0000
3E00
4300
C100
8000
8000
8780
8100
C100
4100
3E00
ENDCHAR
STARTCHAR uni01F5
ENCODING 501
SWIDTH 520 0
DWIDTH 8 0
BBX 7 13 1 -3
BITMAP
0C
10
00
7E
C8
84
CC
78
40
7C
86
C2
7C
ENDCHAR
STARTCHAR uni01F8
ENCODING 504
SWIDTH 780 0
DWIDTH 12 0
BBX 10 13 1 0
BITMAP
1800
0400
0000
C1C0
6080
7080
5880
4880
4480
4680
4380
4180
E080
ENDCHAR
STARTCHAR uni01F9
ENCODING 505
SWIDTH 619 0
DWIDTH 9 0
BBX 7 10 1 0
BITMAP
60
10
00
D8
6C
44
44
44
44
EE
ENDCHAR
STARTCHAR Aringacute
ENCODING 506
SWIDTH 627 0
DWIDTH 9 0
BBX 9 15 0 0
BITMAP
0C00
1000
0000
1800
2400
1800
0800
0800
1400
1400
2200
3E00
4100
4100
E380
ENDCHAR
STARTCHAR aringacute
ENCODING 507
SWIDTH 523 0
DWIDTH 8 0
BBX 6 14 1 0
BITMAP
18
20
00
30
48
30
00
70
D8
08
78
88
D8
6C
ENDCHAR
STARTCHAR AEacute
ENCODING 508
SWIDTH 876 0
DWIDTH 13 0
BBX 12 13 0 0
BITMAP
0180
0200
0000
0FF0
0610
0A00
0A20
13E0
1E20
2200
2210
4210
E7F0
ENDCHAR
STARTCHAR aeacute
ENCODING 509
SWIDTH 797 0
DWIDTH 12 0
BBX 10 10 1 0
BITMAP
0600
0800
0000
7380
DCC0
0840
7FC0
8800
DC40
6780
ENDCHAR
STARTCHAR Oslashacute
ENCODING 510
SWIDTH 762 0
DWIDTH 11 0
BBX 9 13 1 0
BITMAP
0600
0800
0000
3E80
4100
C380
8480
8880
9080
A080
C180
4100
BE00
ENDCHAR
STARTCHAR oslashacute
ENCODING 511
SWIDTH 577 0
DWIDTH 8 0
BBX 6 12 1 -1
BITMAP
18
20
00
04
78
CC
94
A4
A4
CC
78
80
ENDCHAR
STARTCHAR uni0200
ENCODING 512
SWIDTH 635 0
DWIDTH 9 0
BBX 9 14 0 0
BITMAP
4800
2400
1200
0000
0800
0800
1400
1400
2200
2200
3E00
4100
4100
E380
ENDCHAR
STARTCHAR uni0201
ENCODING 513
SWIDTH 523 0
DWIDTH 8 0
BBX 7 11 0 0
BITMAP
90
48
24
00
38
6C
04
3C
44
6C
36
ENDCHAR
STARTCHAR uni0202
ENCODING 514
SWIDTH 635 0
DWIDTH 9 0
BBX 9 13 0 0
BITMAP
1C00
2200
0000
0800
0800
1400
1400
2200
2200
3E00
4100
4100
E380
ENDCHAR
STARTCHAR uni0203
ENCODING 515
SWIDTH 523 0
DWIDTH 8 0
BBX 6 10 1 0
BITMAP
70
88
00
70
D8
08
78
88
D8
6C
ENDCHAR
STARTCHAR uni0204
ENCODING 516
SWIDTH 606 0
DWIDTH 9 0
BBX 7 14 1 0
BITMAP
90
48
24
00
FE
42
40
44
7C
44
40
42
42
FE
ENDCHAR
STARTCHAR uni0205
ENCODING 517
SWIDTH 514 0
DWIDTH 8 0
BBX 7 11 0 0
BITMAP
90
48
24
00
3C
66
42
7E
40
62
3C
ENDCHAR
STARTCHAR uni0206
ENCODING 518
SWIDTH 606 0
DWIDTH 9 0
BBX 7 13 1 0
BITMAP
38
44
00
FE
42
40
44
7C
44
40
42
42
FE
ENDCHAR
STARTCHAR uni0207
ENCODING 519
SWIDTH 514 0
DWIDTH 8 0
BBX 6 10 1 0
BITMAP
38
44
00
78
CC
84
FC
80
C4
78
ENDCHAR
STARTCHAR uni0208
ENCODING 520
SWIDTH 349 0
DWIDTH 5 0
BBX 6 14 -1 0
BITMAP
90
48
24
00
38
10
10
10
10
10
10
10
10
38
ENDCHAR
STARTCHAR uni0209
ENCODING 521
SWIDTH 291 0
DWIDTH 5 0
BBX 6 11 -1 0
BITMAP
90
48
24
00
30
10
10
10
10
10
38
ENDCHAR
STARTCHAR uni020A
ENCODING 522
SWIDTH 349 0
DWIDTH 5 0
BBX 5 13 0 0
BITMAP
70
88
00
70
20
20
20
20
20
20
20
20
70
ENDCHAR
STARTCHAR uni020B
ENCODING 523
SWIDTH 291 0
DWIDTH 5 0
BBX 5 10 0 0
BITMAP
70
88
00
60
20
20
20
20
20
70
ENDCHAR
STARTCHAR uni020C
ENCODING 524
SWIDTH 762 0
DWIDTH 11 0
BBX 9 14 1 0
BITMAP
4800
2400
1200
0000
3E00
4100
C180
8080
8080
8080
8080
C180
4100
3E00
ENDCHAR
STARTCHAR uni020D
ENCODING 525
SWIDTH 577 0
DWIDTH 8 0
BBX 7 11 0 0
BITMAP
90
48
24
00
3C
66
42
42
42
66
3C
ENDCHAR
STARTCHAR uni020E
ENCODING 526
SWIDTH 762 0
DWIDTH 11 0
BBX 9 13 1 0
BITMAP
1C00
2200
0000
3E00
4100
C180
8080
8080
8080
8080
C180
4100
3E00
ENDCHAR
STARTCHAR uni020F
ENCODING 527
SWIDTH 577 0
DWIDTH 8 0
BBX 6 10 1 0
BITMAP
38
44
00
78
CC
84
84
84
CC
78
ENDCHAR
STARTCHAR uni0210
ENCODING 528
SWIDTH 644 0
DWIDTH 9 0
BBX 8 14 1 0
BITMAP
90
48
24
00
FC
46
42
42
44
7C
46
42
42
E3
ENDCHAR
STARTCHAR uni0211
ENCODING 529
SWIDTH 389 0
DWIDTH 6 0
BBX 6 11 0 0
BITMAP
90
48
24
00
6C
34
20
20
20
20
70
ENDCHAR
STARTCHAR uni0212
ENCODING 530
SWIDTH 644 0
DWIDTH 9 0
BBX 8 13 1 0
BITMAP
38
44
00
FC
46
42
42
44
7C
46
42
42
E3
ENDCHAR
STARTCHAR uni0213
ENCODING 531
SWIDTH 389 0
DWIDTH 6 0
BBX 5 10 1 0
BITMAP
70
88
00
D8
68
40
40
40
40
E0
ENDCHAR
STARTCHAR uni0214
ENCODING 532
SWIDTH 791 0
DWIDTH 11 0
BBX 9 14 1 0
BITMAP
4800
2400
1200
0000
E380
4100
4100
4100
4100
4100
4100
4100
6300
3E00
ENDCHAR
STARTCHAR uni0215
ENCODING 533
SWIDTH 606 0
DWIDTH 9 0
BBX 7 11 1 0
BITMAP
90
48
24
00
CC
44
44
44
44
6C
36
ENDCHAR
STARTCHAR uni0216
ENCODING 534
SWIDTH 791 0
DWIDTH 11 0
BBX 9 13 1 0
BITMAP
1C00
2200
0000
E380
4100
4100
4100
4100
4100
4100
4100
6300
3E00
ENDCHAR
STARTCHAR uni0217
ENCODING 535
SWIDTH 606 0
DWIDTH 9 0
BBX 7 10 1 0
BITMAP
38
44
00
CC
44
44
44
44
6C
36
ENDCHAR
STARTCHAR Scommaaccent
ENCODING 536
SWIDTH 541 0
DWIDTH 8 0
BBX 6 15 1 -5
BITMAP
78
CC
84
C0
60
18
0C
84
CC
78
00
30
10
10
20
ENDCHAR
STARTCHAR scommaaccent
ENCODING 537
SWIDTH 436 0
DWIDTH 7 0
BBX 5 12 1 -5
BITMAP
70
98
C0
70
18
88
F0
00
60
20
20
40
ENDCHAR
STARTCHAR Tcommaaccent
ENCODING 538
SWIDTH 621 0
DWIDTH 9 0
BBX 9 15 0 -5
BITMAP
FF80
8880
0800
0800
0800
0800
0800
0800
0800
1C00
0000
1800
0800
0800
1000
ENDCHAR
STARTCHAR tcommaaccent
ENCODING 539
SWIDTH 344 0
DWIDTH 4 0
BBX 4 14 0 -5
BITMAP
40
40
F0
40
40
40
40
40
30
00
60
20
20
40
ENDCHAR
STARTCHAR uni021E
ENCODING 542
SWIDTH 798 0
DWIDTH 11 0
BBX 9 13 1 0
BITMAP
1400
0800
0000
E380
4100
4100
4100
7F00
4100
4100
4100
4100
E380
ENDCHAR
STARTCHAR uni021F
ENCODING 543
SWIDTH 607 0
DWIDTH 9 0
BBX 7 14 1 0
BITMAP
50
20
00
C0
40
40
40
58
6C
44
44
44
44
EE
ENDCHAR
STARTCHAR uni0226
ENCODING 550
SWIDTH 635 0
DWIDTH 9 0
BBX 9 13 0 0
BITMAP
0800
0800
0000
0800
0800
1400
1400
2200
2200
3E00
4100
4100
E380
ENDCHAR
STARTCHAR uni0227
ENCODING 551
SWIDTH 523 0
DWIDTH 8 0
BBX 6 10 1 0
BITMAP
20
20
00
70
D8
08
78
88
D8
6C
ENDCHAR
STARTCHAR uni0228
ENCODING 552
SWIDTH 606 0
DWIDTH 9 0
BBX 7 13 1 -3
BITMAP
FE
42
40
44
7C
44
40
42
42
FE
10
08
18
ENDCHAR
STARTCHAR uni0229
ENCODING 553
SWIDTH 514 0
DWIDTH 8 0
BBX 6 10 1 -3
BITMAP
78
CC
84
FC
80
C4
78
20
10
30
ENDCHAR
STARTCHAR uni022A
ENCODING 554
SWIDTH 762 0
DWIDTH 11 0
BBX 9 14 1 0
BITMAP
1E00
0000
1400
1400
0000
3E00
4100
C180
8080
8080
8080
C180
4100
3E00
ENDCHAR
STARTCHAR uni022B
ENCODING 555
SWIDTH 577 0
DWIDTH 8 0
BBX 6 12 1 0
BITMAP
78
00
50
50
00
78
CC
84
84
84
CC
78
ENDCHAR
STARTCHAR uni022C
ENCODING 556
SWIDTH 762 0
DWIDTH 11 0
BBX 9 14 1 0
BITMAP
1E00
0000
1A00
2C00
0000
3E00
4100
C180
8080
8080
8080
C180
4100
3E00
ENDCHAR
STARTCHAR uni022D
ENCODING 557
SWIDTH 577 0
DWIDTH 8 0
BBX 6 12 1 0
BITMAP
78
00
68
B0
00
78
CC
84
84
84
CC
78
ENDCHAR
STARTCHAR uni022E
ENCODING 558
SWIDTH 762 0
DWIDTH 11 0
BBX 9 13 1 0
BITMAP
0800
0800
0000
3E00
4100
C180
8080
8080
8080
8080
C180
4100
3E00
ENDCHAR
STARTCHAR uni022F
ENCODING 559
SWIDTH 577 0
DWIDTH 8 0
BBX 6 10 1 0
BITMAP
10
10
00
78
CC
84
84
84
CC
78
ENDCHAR
STARTCHAR uni0230
ENCODING 560
SWIDTH 762 0
DWIDTH 11 0
BBX 9 15 1 0
BITMAP
1E00
0000
0800
0800
0000
3E00
4100
C180
8080
8080
8080
8080
C180
4100
3E00
ENDCHAR
STARTCHAR uni0231
ENCODING 561
SWIDTH 577 0
DWIDTH 8 0
BBX 6 12 1 0
BITMAP
78
00
10
10
00
78
CC
84
84
84
CC
78
ENDCHAR
STARTCHAR uni0232
ENCODING 562
SWIDTH 588 0
DWIDTH 9 0
BBX 9 12 0 0
BITMAP
3C00
0000
E380
6100
2200
3200
1400
1C00
0800
0800
0800
1C00
ENDCHAR
STARTCHAR uni0233
ENCODING 563
SWIDTH 506 0
DWIDTH 7 0
BBX 7 12 0 -3
BITMAP
78
00
EE
44
64
28
38
10
10
20
A0
C0
ENDCHAR
STARTCHAR uni0250
ENCODING 592
SWIDTH 523 0
DWIDTH 8 0
BBX 6 7 1 0
BITMAP
D8
6C
44
78
40
6C
38
ENDCHAR
STARTCHAR uni0254
ENCODING 596
SWIDTH 496 0
DWIDTH 7 0
BBX 5 7 1 0
BITMAP
70
D8
08
08
08
98
70
ENDCHAR
STARTCHAR uni0258
ENCODING 600
SWIDTH 514 0
DWIDTH 8 0
BBX 6 7 1 0
BITMAP
78
CC
84
FC
04
8C
78
ENDCHAR
STARTCHAR uni0259
ENCODING 601
SWIDTH 514 0
DWIDTH 8 0
BBX 6 7 1 0
BITMAP
78
8C
04
FC
84
CC
78
ENDCHAR
STARTCHAR uni025F
ENCODING 607
SWIDTH 319 0
DWIDTH 5 0
BBX 5 11 1 -4
BITMAP
38
10
10
10
10
10
78
10
10
D0
60
ENDCHAR
STARTCHAR uni0265
ENCODING 613
SWIDTH 607 0
DWIDTH 9 0
BBX 7 11 1 -4
BITMAP
EE
44
44
44
44
6C
34
04
04
04
06
ENDCHAR
STARTCHAR uni0275
ENCODING 629
SWIDTH 577 0
DWIDTH 8 0
BBX 6 7 1 0
BITMAP
78
CC
84
FC
84
CC
78
ENDCHAR
STARTCHAR uni0279
ENCODING 633
SWIDTH 389 0
DWIDTH 6 0
BBX 5 7 1 0
BITMAP
38
10
10
10
10
B0
D8
ENDCHAR
STARTCHAR uni0287
ENCODING 647
SWIDTH 344 0
DWIDTH 4 0
BBX 4 9 0 0
BITMAP
C0
20
20
20
20
20
F0
20
20
ENDCHAR
STARTCHAR uni0288
ENCODING 648
SWIDTH 344 0
DWIDTH 4 0
BBX 4 12 0 -3
BITMAP
40
40
F0
40
40
40
40
40
40
40
20
10
ENDCHAR
STARTCHAR uni0289
ENCODING 649
SWIDTH 606 0
DWIDTH 9 0
BBX 7 7 1 0
BITMAP
CC
44
44
FE
44
6C
36
ENDCHAR
STARTCHAR uni028C
ENCODING 652
SWIDTH 504 0
DWIDTH 7 0
BBX 7 7 0 0
BITMAP
10
10
38
28
4C
44
EE
ENDCHAR
STARTCHAR uni028D
ENCODING 653
SWIDTH 768 0
DWIDTH 11 0
BBX 11 7 0 0
BITMAP
1100
1100
3B80
2A80
4CC0
4440
E4E0
ENDCHAR
STARTCHAR uni028E
ENCODING 654
SWIDTH 506 0
DWIDTH 7 0
BBX 7 10 0 0
BITMAP
06
0A
08
10
10
38
28
4C
44
EE
ENDCHAR
STARTCHAR uni029E
ENCODING 670
SWIDTH 524 0
DWIDTH 8 0
BBX 7 11 1 -4
BITMAP
CE
64
34
1C
14
24
64
04
04
04
06
ENDCHAR
STARTCHAR uni02BB
ENCODING 699
SWIDTH 278 0
DWIDTH 4 0
BBX 2 4 1 6
BITMAP
40
80
80
C0
ENDCHAR
STARTCHAR afii57929
ENCODING 700
SWIDTH 278 0
DWIDTH 4 0
BBX 2 4 1 6
BITMAP
C0
40
40
80
ENDCHAR
STARTCHAR afii64937
ENCODING 701
SWIDTH 278 0
DWIDTH 4 0
BBX 2 4 1 6
BITMAP
C0
80
80
40
ENDCHAR
STARTCHAR circumflex
ENCODING 710
SWIDTH 400 0
DWIDTH 6 0
BBX 3 2 1 8
BITMAP
40
A0
ENDCHAR
STARTCHAR caron
ENCODING 711
SWIDTH 400 0
DWIDTH 6 0
BBX 3 2 1 8
BITMAP
A0
40
ENDCHAR
STARTCHAR uni02C8
ENCODING 712
SWIDTH 278 0
DWIDTH 4 0
BBX 1 4 1 6
BITMAP
80
80
80
80
ENDCHAR
STARTCHAR macron
ENCODING 713
SWIDTH 400 0
DWIDTH 6 0
BBX 4 1 1 8
BITMAP
F0
ENDCHAR
STARTCHAR uni02CA
ENCODING 714
SWIDTH 400 0
DWIDTH 6 0
BBX 3 2 1 8
BITMAP
60
80
ENDCHAR
STARTCHAR uni02CB
ENCODING 715
SWIDTH 400 0
DWIDTH 6 0
BBX 3 2 1 8
BITMAP
C0
20
ENDCHAR
STARTCHAR uni02CD
ENCODING 717
SWIDTH 400 0
DWIDTH 6 0
BBX 4 1 1 -2
BITMAP
F0
ENDCHAR
STARTCHAR uni02CE
ENCODING 718
SWIDTH 400 0
DWIDTH 6 0
BBX 3 2 1 -3
BITMAP
C0
20
ENDCHAR
STARTCHAR uni02CF
ENCODING 719
SWIDTH 400 0
DWIDTH 6 0
BBX 3 2 1 -3
BITMAP
60
80
ENDCHAR
STARTCHAR breve
ENCODING 728
SWIDTH 400 0
DWIDTH 6 0
BBX 5 2 0 8
BITMAP
88
70
ENDCHAR
STARTCHAR dotaccent
ENCODING 729
SWIDTH 400 0
DWIDTH 6 0
BBX 1 2 2 8
BITMAP
80
80
ENDCHAR
STARTCHAR ring
ENCODING 730
SWIDTH 400 0
DWIDTH 6 0
BBX 4 3 1 8
BITMAP
60
90
60
ENDCHAR
STARTCHAR ogonek
ENCODING 731
SWIDTH 400 0
DWIDTH 6 0
BBX 2 3 1 -3
BITMAP
40
80
C0
ENDCHAR
STARTCHAR tilde
ENCODING 732
SWIDTH 400 0
DWIDTH 6 0
BBX 5 2 0 8
BITMAP
68
B0
ENDCHAR
STARTCHAR hungarumlaut
ENCODING 733
SWIDTH 400 0
DWIDTH 6 0
BBX 6 3 0 8
BITMAP
24
48
90
ENDCHAR
STARTCHAR uni02EE
ENCODING 750
SWIDTH 458 0
DWIDTH 6 0
BBX 4 4 0 6
BITMAP
F0
50
50
A0
ENDCHAR
STARTCHAR uni037E
ENCODING 894
SWIDTH 265 0
DWIDTH 4 0
BBX 2 9 1 -2
BITMAP
40
40
00
00
00
C0
40
40
80
ENDCHAR
STARTCHAR tonos
ENCODING 900
SWIDTH 400 0
DWIDTH 6 0
BBX 3 2 1 8
BITMAP
60
80
ENDCHAR
STARTCHAR dieresistonos
ENCODING 901
SWIDTH 400 0
DWIDTH 6 0
BBX 4 5 1 8
BITMAP
30
40
00
A0
A0
ENDCHAR
STARTCHAR anoteleia
ENCODING 903
SWIDTH 265 0
DWIDTH 4 0
BBX 1 2 1 3
BITMAP
80
80
ENDCHAR
STARTCHAR mu
ENCODING 956
SWIDTH 606 0
DWIDTH 9 0
BBX 7 10 1 -3
BITMAP
CC
44
44
44
44
6C
76
40
40
40
ENDCHAR
STARTCHAR uni1E00
ENCODING 7680
SWIDTH 635 0
DWIDTH 9 0
BBX 9 14 0 -4
BITMAP
0800
0800
1400
1400
2200
2200
3E00
4100
4100
E380
0000
0C00
1200
0C00
ENDCHAR
STARTCHAR uni1E01
ENCODING 7681
SWIDTH 523 0
DWIDTH 8 0
BBX 6 11 1 -4
BITMAP
70
D8
08
78
88
D8
6C
00
30
48
30
ENDCHAR
STARTCHAR uni1E02
ENCODING 7682
SWIDTH 646 0
DWIDTH 9 0
BBX 7 13 1 0
BITMAP
10
10
00
FC
46
42
44
7C
46
42
42
46
FC
ENDCHAR
STARTCHAR uni1E03
ENCODING 7683
SWIDTH 598 0
DWIDTH 8 0
BBX 7 14 0 0
BITMAP
20
20
00
C0
40
40
40
5C
66
42
42
42
66
5C
ENDCHAR
STARTCHAR uni1E04
ENCODING 7684
SWIDTH 646 0
DWIDTH 9 0
BBX 7 13 1 -3
BITMAP
FC
46
42
44
7C
46
42
42
46
FC
00
10
10
ENDCHAR
STARTCHAR uni1E05
ENCODING 7685
SWIDTH 598 0
DWIDTH 8 0
BBX 7 14 0 -3
BITMAP
C0
40
40
40
5C
66
42
42
42
66
5C
00
10
10
ENDCHAR
STARTCHAR uni1E06
ENCODING 7686
SWIDTH 646 0
DWIDTH 9 0
BBX 7 12 1 -2
BITMAP
FC
46
42
44
7C
46
42
42
46
FC
00
3C
ENDCHAR
STARTCHAR uni1E07
ENCODING 7687
SWIDTH 598 0
DWIDTH 8 0
BBX 7 13 0 -2
BITMAP
C0
40
40
40
5C
66
42
42
42
66
5C
00
3C
ENDCHAR
STARTCHAR uni1E08
ENCODING 7688
SWIDTH 680 0
DWIDTH 10 0
BBX 8 16 1 -3
BITMAP
0C
10
00
3E
43
C1
80
80
80
80
C1
43
3E
10
08
18
ENDCHAR
STARTCHAR uni1E09
ENCODING 7689
SWIDTH 496 0
DWIDTH 7 0
BBX 5 13 1 -3
BITMAP
18
20
00
70
D8
80
80
80
C8
70
20
10
30
ENDCHAR
STARTCHAR uni1E0A
ENCODING 7690
SWIDTH 779 0
DWIDTH 11 0
BBX 9 13 1 0
BITMAP
0800
0800
0000
FE00
4100
4180
4080
4080
4080
4080
4180
4100
FE00
ENDCHAR
STARTCHAR uni1E0B
ENCODING 7691
SWIDTH 598 0
DWIDTH 9 0
BBX 7 14 1 0
BITMAP
08
08
00
0C
04
04
04
74
CC
84
84
84
CC
76
ENDCHAR
STARTCHAR uni1E0C
ENCODING 7692
SWIDTH 779 0
DWIDTH 11 0
BBX 9 13 1 -3
BITMAP
FE00
4100
4180
4080
4080
4080
4080
4180
4100
FE00
0000
0800
0800
ENDCHAR
STARTCHAR uni1E0D
ENCODING 7693
SWIDTH 598 0
DWIDTH 9 0
BBX 7 14 1 -3
BITMAP
0C
04
04
04
74
CC
84
84
84
CC
76
00
10
10
ENDCHAR
STARTCHAR uni1E0E
ENCODING 7694
SWIDTH 779 0
DWIDTH 11 0
BBX 9 12 1 -2
BITMAP
FE00
4100
4180
4080
4080
4080
4080
4180
4100
FE00
0000
3C00
ENDCHAR
STARTCHAR uni1E0F
ENCODING 7695
SWIDTH 598 0
DWIDTH 9 0
BBX 7 13 1 -2
BITMAP
0C
04
04
04
74
CC
84
84
84
CC
76
00
78
ENDCHAR
STARTCHAR uni1E10
ENCODING 7696
SWIDTH 779 0
DWIDTH 11 0
BBX 9 13 1 -3
BITMAP
FE00
4100
4180
4080
4080
4080
4080
4180
4100
FE00
0800
0400
0C00
ENDCHAR
STARTCHAR uni1E11
ENCODING 7697
SWIDTH 598 0
DWIDTH 9 0
BBX 7 14 1 -3
BITMAP
0C
04
04
04
74
CC
84
84
84
CC
76
10
08
18
ENDCHAR
STARTCHAR uni1E12
ENCODING 7698
SWIDTH 779 0
DWIDTH 11 0
BBX 9 13 1 -3
BITMAP
FE00
4100
4180
4080
4080
4080
4080
4180
4100
FE00
0000
0800
1400
ENDCHAR
STARTCHAR uni1E13
ENCODING 7699
SWIDTH 598 0
DWIDTH 9 0
BBX 7 14 1 -3
BITMAP
0C
04
04
04
74
CC
84
84
84
CC
76
00
10
28
ENDCHAR
STARTCHAR uni1E14
ENCODING 7700
SWIDTH 606 0
DWIDTH 9 0
BBX 7 15 1 0
BITMAP
60
10
00
78
00
FE
42
40
44
7C
44
40
42
42
FE
ENDCHAR
STARTCHAR uni1E15
ENCODING 7701
SWIDTH 514 0
DWIDTH 8 0
BBX 6 12 1 0
BITMAP
60
10
00
78
00
78
CC
84
FC
80
C4
78
ENDCHAR
STARTCHAR uni1E16
ENCODING 7702
SWIDTH 606 0
DWIDTH 9 0
BBX 7 15 1 0
BITMAP
0C
10
00
78
00
FE
42
40
44
7C
44
40
42
42
FE
ENDCHAR
STARTCHAR uni1E17
ENCODING 7703
SWIDTH 514 0
DWIDTH 8 0
BBX 6 12 1 0
BITMAP
18
20
00
78
00
78
CC
84
FC
80
C4
78
ENDCHAR
STARTCHAR uni1E18
ENCODING 7704
SWIDTH 606 0
DWIDTH 9 0
BBX 7 13 1 -3
BITMAP
FE
42
40
44
7C
44
40
42
42
FE
00
10
28
ENDCHAR
STARTCHAR uni1E19
ENCODING 7705
SWIDTH 514 0
DWIDTH 8 0
BBX 6 10 1 -3
BITMAP
78
CC
84
FC
80
C4
78
00
20
50
ENDCHAR
STARTCHAR uni1E1A
ENCODING 7706
SWIDTH 606 0
DWIDTH 9 0
BBX 7 13 1 -3
BITMAP
FE
42
40
44
7C
44
40
42
42
FE
00
34
58
ENDCHAR
STARTCHAR uni1E1B
ENCODING 7707
SWIDTH 514 0
DWIDTH 8 0
BBX 6 10 1 -3
BITMAP
78
CC
84
FC
80
C4
78
00
68
B0
ENDCHAR
STARTCHAR uni1E1C
ENCODING 7708
SWIDTH 606 0
DWIDTH 9 0
BBX 7 16 1 -3
BITMAP
44
38
00
FE
42
40
44
7C
44
40
42
42
FE
10
08
18
ENDCHAR
STARTCHAR uni1E1D
ENCODING 7709
SWIDTH 514 0
DWIDTH 8 0
BBX 6 13 1 -3
BITMAP
44
38
00
78
CC
84
FC
80
C4
78
20
10
30
ENDCHAR
STARTCHAR uni1E1E
ENCODING 7710
SWIDTH 580 0
DWIDTH 9 0
BBX 7 13 1 0
BITMAP
10
10
00
FE
42
40
44
7C
44
40
40
40
E0
ENDCHAR
STARTCHAR uni1E1F
ENCODING 7711
SWIDTH 319 0
DWIDTH 5 0
BBX 5 14 1 0
BITMAP
20
20
00
30
58
40
40
F0
40
40
40
40
40
E0
ENDCHAR
STARTCHAR uni1E20
ENCODING 7712
SWIDTH 734 0
DWIDTH 11 0
BBX 9 12 1 0
BITMAP
3C00
0000
3E00
4300
C100
8000
8000
8780
8100
C100
4100
3E00
ENDCHAR
STARTCHAR uni1E21
ENCODING 7713
SWIDTH 520 0
DWIDTH 8 0
BBX 7 12 1 -3
BITMAP
78
00
7E
C8
84
CC
78
40
7C
86
C2
7C
ENDCHAR
STARTCHAR uni1E22
ENCODING 7714
SWIDTH 798 0
DWIDTH 11 0
BBX 9 13 1 0
BITMAP
0800
0800
0000
E380
4100
4100
4100
7F00
4100
4100
4100
4100
E380
ENDCHAR
STARTCHAR uni1E23
ENCODING 7715
SWIDTH 607 0
DWIDTH 9 0
BBX 7 14 1 0
BITMAP
20
20
00
C0
40
40
40
58
6C
44
44
44
44
EE
ENDCHAR
STARTCHAR uni1E24
ENCODING 7716
SWIDTH 798 0
DWIDTH 11 0
BBX 9 13 1 -3
BITMAP
E380
4100
4100
4100
7F00
4100
4100
4100
4100
E380
0000
0800
0800
ENDCHAR
STARTCHAR uni1E25
ENCODING 7717
SWIDTH 607 0
DWIDTH 9 0
BBX 7 14 1 -3
BITMAP
C0
40
40
40
58
6C
44
44
44
44
EE
00
10
10
ENDCHAR
STARTCHAR uni1E26
ENCODING 7718
SWIDTH 798 0
DWIDTH 11 0
BBX 9 13 1 0
BITMAP
1400
1400
0000
E380
4100
4100
4100
7F00
4100
4100
4100
4100
E380
ENDCHAR
STARTCHAR uni1E27
ENCODING 7719
SWIDTH 607 0
DWIDTH 9 0
BBX 7 14 1 0
BITMAP
50
50
00
C0
40
40
40
58
6C
44
44
44
44
EE
ENDCHAR
STARTCHAR uni1E28
ENCODING 7720
SWIDTH 798 0
DWIDTH 11 0
BBX 9 13 1 -3
BITMAP
E380
4100
4100
4100
7F00
4100
4100
4100
4100
E380
0800
0400
0C00
ENDCHAR
STARTCHAR uni1E29
ENCODING 7721
SWIDTH 607 0
DWIDTH 9 0
BBX 7 14 1 -3
BITMAP
C0
40
40
40
58
6C
44
44
44
44
EE
10
08
18
ENDCHAR
STARTCHAR uni1E2A
ENCODING 7722
SWIDTH 798 0
DWIDTH 11 0
BBX 9 13 1 -3
BITMAP
E380
4100
4100
4100
7F00
4100
4100
4100
4100
E380
0000
2200
1C00
ENDCHAR
STARTCHAR uni1E2B
ENCODING 7723
SWIDTH 607 0
DWIDTH 9 0
BBX 7 14 1 -3
BITMAP
C0
40
40
40
58
6C
44
44
44
44
EE
00
44
38
ENDCHAR
STARTCHAR uni1E2C
ENCODING 7724
SWIDTH 349 0
DWIDTH 5 0
BBX 5 13 0 -3
BITMAP
70
20
20
20
20
20
20
20
20
70
00
68
B0
ENDCHAR
STARTCHAR uni1E2D
ENCODING 7725
SWIDTH 291 0
DWIDTH 5 0
BBX 5 13 0 -3
BITMAP
20
20
00
60
20
20
20
20
20
70
00
68
B0
ENDCHAR
STARTCHAR uni1E2E
ENCODING 7726
SWIDTH 349 0
DWIDTH 5 0
BBX 4 15 1 0
BITMAP
30
40
00
A0
A0
00
E0
40
40
40
40
40
40
40
E0
ENDCHAR
STARTCHAR uni1E2F
ENCODING 7727
SWIDTH 291 0
DWIDTH 5 0
BBX 4 13 1 0
BITMAP
30
40
00
A0
A0
00
C0
40
40
40
40
40
E0
ENDCHAR
STARTCHAR uni1E30
ENCODING 7728
SWIDTH 658 0
DWIDTH 10 0
BBX 9 13 1 0
BITMAP
0C00
1000
0000
E700
4200
4400
4800
5000
7800
4C00
4600
4300
E180
ENDCHAR
STARTCHAR uni1E31
ENCODING 7729
SWIDTH 524 0
DWIDTH 8 0
BBX 7 14 1 0
BITMAP
30
40
00
C0
40
40
40
4C
48
50
70
58
4C
E6
ENDCHAR
STARTCHAR uni1E32
ENCODING 7730
SWIDTH 658 0
DWIDTH 10 0
BBX 9 13 1 -3
BITMAP
E700
4200
4400
4800
5000
7800
4C00
4600
4300
E180
0000
0800
0800
ENDCHAR
STARTCHAR uni1E33
ENCODING 7731
SWIDTH 524 0
DWIDTH 8 0
BBX 7 14 1 -3
BITMAP
C0
40
40
40
4C
48
50
70
58
4C
E6
00
10
10
ENDCHAR
STARTCHAR uni1E34
ENCODING 7732
SWIDTH 658 0
DWIDTH 10 0
BBX 9 12 1 -2
BITMAP
E700
4200
4400
4800
5000
7800
4C00
4600
4300
E180
0000
1E00
ENDCHAR
STARTCHAR uni1E35
ENCODING 7733
SWIDTH 524 0
DWIDTH 8 0
BBX 7 13 1 -2
BITMAP
C0
40
40
40
4C
48
50
70
58
4C
E6
00
78
ENDCHAR
STARTCHAR uni1E36
ENCODING 7734
SWIDTH 568 0
DWIDTH 8 0
BBX 7 13 1 -3
BITMAP
E0
40
40
40
40
40
40
42
42
FE
00
10
10
ENDCHAR
STARTCHAR uni1E37
ENCODING 7735
SWIDTH 279 0
DWIDTH 5 0
BBX 3 14 1 -3
BITMAP
C0
40
40
40
40
40
40
40
40
40
E0
00
40
40
ENDCHAR
STARTCHAR uni1E38
ENCODING 7736
SWIDTH 568 0
DWIDTH 8 0
BBX 7 15 1 -3
BITMAP
F0
00
E0
40
40
40
40
40
40
42
42
FE
00
10
10
ENDCHAR
STARTCHAR uni1E39
ENCODING 7737
SWIDTH 279 0
DWIDTH 5 0
BBX 4 16 0 -3
BITMAP
F0
00
60
20
20
20
20
20
20
20
20
20
70
00
20
20
ENDCHAR
STARTCHAR uni1E3A
ENCODING 7738
SWIDTH 568 0
DWIDTH 8 0
BBX 7 12 1 -2
BITMAP
E0
40
40
40
40
40
40
42
42
FE
00
3C
ENDCHAR
STARTCHAR uni1E3B
ENCODING 7739
SWIDTH 279 0
DWIDTH 5 0
BBX 4 13 1 -2
BITMAP
C0
40
40
40
40
40
40
40
40
40
E0
00
F0
ENDCHAR
STARTCHAR uni1E3C
ENCODING 7740
SWIDTH 568 0
DWIDTH 8 0
BBX 7 13 1 -3
BITMAP
E0
40
40
40
40
40
40
42
42
FE
00
10
28
ENDCHAR
STARTCHAR uni1E3D
ENCODING 7741
SWIDTH 279 0
DWIDTH 5 0
BBX 3 14 1 -3
BITMAP
C0
40
40
40
40
40
40
40
40
40
E0
00
40
A0
ENDCHAR
STARTCHAR uni1E3E
ENCODING 7742
SWIDTH 944 0
DWIDTH 14 0
BBX 12 13 1 0
BITMAP
0300
0400
0000
E070
6060
70A0
50A0
5920
4920
4E20
4620
4420
E070
ENDCHAR
STARTCHAR uni1E3F
ENCODING 7743
SWIDTH 923 0
DWIDTH 13 0
BBX 11 10 1 0
BITMAP
0600
0800
0000
D980
6EC0
4440
4440
4440
4440
EEE0
ENDCHAR
STARTCHAR uni1E40
ENCODING 7744
SWIDTH 944 0
DWIDTH 14 0
BBX 12 13 1 0
BITMAP
0400
0400
0000
E070
6060
70A0
50A0
5920
4920
4E20
4620
4420
E070
ENDCHAR
STARTCHAR uni1E41
ENCODING 7745
SWIDTH 923 0
DWIDTH 13 0
BBX 11 10 1 0
BITMAP
0400
0400
0000
D980
6EC0
4440
4440
4440
4440
EEE0
ENDCHAR
STARTCHAR uni1E42
ENCODING 7746
SWIDTH 944 0
DWIDTH 14 0
BBX 12 13 1 -3
BITMAP
E070
6060
70A0
50A0
5920
4920
4E20
4620
4420
E070
0000
0400
0400
ENDCHAR
STARTCHAR uni1E43
ENCODING 7747
SWIDTH 923 0
DWIDTH 13 0
BBX 11 10 1 -3
BITMAP
D980
6EC0
4440
4440
4440
4440
EEE0
0000
0400
0400
ENDCHAR
STARTCHAR uni1E44
ENCODING 7748
SWIDTH 780 0
DWIDTH 12 0
BBX 10 13 1 0
BITMAP
0800
0800
0000
C1C0
6080
7080
5880
4880
4480
4680
4380
4180
E080
ENDCHAR
STARTCHAR uni1E45
ENCODING 7749
SWIDTH 619 0
DWIDTH 9 0
BBX 7 10 1 0
BITMAP
10
10
00
D8
6C
44
44
44
44
EE
ENDCHAR
STARTCHAR uni1E46
ENCODING 7750
SWIDTH 780 0
DWIDTH 12 0
BBX 10 13 1 -3
BITMAP
C1C0
6080
7080
5880
4880
4480
4680
4380
4180
E080
0000
0800
0800
ENDCHAR
STARTCHAR uni1E47
ENCODING 7751
SWIDTH 619 0
DWIDTH 9 0
BBX 7 10 1 -3
BITMAP
D8
6C
44
44
44
44
EE
00
10
10
ENDCHAR
STARTCHAR uni1E48
ENCODING 7752
SWIDTH 780 0
DWIDTH 12 0
BBX 10 12 1 -2
BITMAP
C1C0
6080
7080
5880
4880
4480
4680
4380
4180
E080
0000
1E00
ENDCHAR
STARTCHAR uni1E49
ENCODING 7753
SWIDTH 619 0
DWIDTH 9 0
BBX 7 9 1 -2
BITMAP
D8
6C
44
44
44
44
EE
00
3C
ENDCHAR
STARTCHAR uni1E4A
ENCODING 7754
SWIDTH 780 0
DWIDTH 12 0
BBX 10 13 1 -3
BITMAP
C1C0
6080
7080
5880
4880
4480
4680
4380
4180
E080
0000
0800
1400
ENDCHAR
STARTCHAR uni1E4B
ENCODING 7755
SWIDTH 619 0
DWIDTH 9 0
BBX 7 10 1 -3
BITMAP
D8
6C
44
44
44
44
EE
00
10
28
ENDCHAR
STARTCHAR uni1E4C
ENCODING 7756
SWIDTH 762 0
DWIDTH 11 0
BBX 9 15 1 0
BITMAP
0600
0800
0000
1A00
2C00
0000
3E00
4100
C180
8080
8080
8080
C180
4100
3E00
ENDCHAR
STARTCHAR uni1E4D
ENCODING 7757
SWIDTH 577 0
DWIDTH 8 0
BBX 6 13 1 0
BITMAP
18
20
00
68
B0
00
78
CC
84
84
84
CC
78
ENDCHAR
STARTCHAR uni1E4E
ENCODING 7758
SWIDTH 762 0
DWIDTH 11 0
BBX 9 15 1 0
BITMAP
1400
1400
0000
1A00
2C00
0000
3E00
4100
C180
8080
8080
8080
C180
4100
3E00
ENDCHAR
STARTCHAR uni1E4F
ENCODING 7759
SWIDTH 577 0
DWIDTH 8 0
BBX 6 13 1 0
BITMAP
50
50
00
68
B0
00
78
CC
84
84
84
CC
78
ENDCHAR
STARTCHAR uni1E50
ENCODING 7760
SWIDTH 762 0
DWIDTH 11 0
BBX 9 15 1 0
BITMAP
3000
0800
0000
1E00
0000
3E00
4100
C180
8080
8080
8080
8080
C180
4100
3E00
ENDCHAR
STARTCHAR uni1E51
ENCODING 7761
SWIDTH 577 0
DWIDTH 8 0
BBX 6 12 1 0
BITMAP
60
10
00
78
00
78
CC
84
84
84
CC
78
ENDCHAR
STARTCHAR uni1E52
ENCODING 7762
SWIDTH 762 0
DWIDTH 11 0
BBX 9 15 1 0
BITMAP
0600
0800
0000
1E00
0000
3E00
4100
C180
8080
8080
8080
8080
C180
4100
3E00
ENDCHAR
STARTCHAR uni1E53
ENCODING 7763
SWIDTH 577 0
DWIDTH 8 0
BBX 6 12 1 0
BITMAP
18
20
00
78
00
78
CC
84
84
84
CC
78
ENDCHAR
STARTCHAR uni1E54
ENCODING 7764
SWIDTH 600 0
DWIDTH 9 0
BBX 7 13 1 0
BITMAP
0C
10
00
FC
46
42
42
46
7C
40
40
40
E0
ENDCHAR
STARTCHAR uni1E55
ENCODING 7765
SWIDTH 608 0
DWIDTH 8 0
BBX 7 13 0 -3
BITMAP
0C
10
00
DC
66
42
42
42
66
5C
40
40
E0
ENDCHAR
STARTCHAR uni1E56
ENCODING 7766
SWIDTH 600 0
DWIDTH 9 0
BBX 7 13 1 0
BITMAP
10
10
00
FC
46
42
42
46
7C
40
40
40
E0
ENDCHAR
STARTCHAR uni1E57
ENCODING 7767
SWIDTH 608 0
DWIDTH 8 0
BBX 7 13 0 -3
BITMAP
10
10
00
DC
66
42
42
42
66
5C
40
40
E0
ENDCHAR
STARTCHAR uni1E58
ENCODING 7768
SWIDTH 644 0
DWIDTH 9 0
BBX 8 13 1 0
BITMAP
10
10
00
FC
46
42
42
44
7C
46
42
42
E3
ENDCHAR
STARTCHAR uni1E59
ENCODING 7769
SWIDTH 389 0
DWIDTH 6 0
BBX 5 10 1 0
BITMAP
20
20
00
D8
68
40
40
40
40
E0
ENDCHAR
STARTCHAR uni1E5A
ENCODING 7770
SWIDTH 644 0
DWIDTH 9 0
BBX 8 13 1 -3
BITMAP
FC
46
42
42
44
7C
46
42
42
E3
00
10
10
ENDCHAR
STARTCHAR uni1E5B
ENCODING 7771
SWIDTH 389 0
DWIDTH 6 0
BBX 5 10 1 -3
BITMAP
D8
68
40
40
40
40
E0
00
40
40
ENDCHAR
STARTCHAR uni1E5C
ENCODING 7772
SWIDTH 644 0
DWIDTH 9 0
BBX 8 15 1 -3
BITMAP
3C
00
FC
46
42
42
44
7C
46
42
42
E3
00
10
10
ENDCHAR
STARTCHAR uni1E5D
ENCODING 7773
SWIDTH 389 0
DWIDTH 6 0
BBX 5 12 1 -3
BITMAP
78
00
D8
68
40
40
40
40
E0
00
40
40
ENDCHAR
STARTCHAR uni1E5E
ENCODING 7774
SWIDTH 644 0
DWIDTH 9 0
BBX 8 12 1 -2
BITMAP
FC
46
42
42
44
7C
46
42
42
E3
00
3C
ENDCHAR
STARTCHAR uni1E5F
ENCODING 7775
SWIDTH 389 0
DWIDTH 6 0
BBX 5 9 1 -2
BITMAP
D8
68
40
40
40
40
E0
00
F0
ENDCHAR
STARTCHAR uni1E60
ENCODING 7776
SWIDTH 541 0
DWIDTH 8 0
BBX 6 13 1 0
BITMAP
10
10
00
78
CC
84
C0
60
18
0C
84
CC
78
ENDCHAR
STARTCHAR uni1E61
ENCODING 7777
SWIDTH 436 0
DWIDTH 7 0
BBX 5 10 1 0
BITMAP
20
20
00
70
98
C0
70
18
88
F0
ENDCHAR
STARTCHAR uni1E62
ENCODING 7778
SWIDTH 541 0
DWIDTH 8 0
BBX 6 13 1 -3
BITMAP
78
CC
84
C0
60
18
0C
84
CC
78
00
10
10
ENDCHAR
STARTCHAR uni1E63
ENCODING 7779
SWIDTH 436 0
DWIDTH 7 0
BBX 5 10 1 -3
BITMAP
70
98
C0
70
18
88
F0
00
20
20
ENDCHAR
STARTCHAR uni1E64
ENCODING 7780
SWIDTH 541 0
DWIDTH 8 0
BBX 6 16 1 0
BITMAP
10
10
00
18
20
00
78
CC
84
C0
60
18
0C
84
CC
78
ENDCHAR
STARTCHAR uni1E65
ENCODING 7781
SWIDTH 436 0
DWIDTH 7 0
BBX 5 13 1 0
BITMAP
10
10
00
18
20
00
70
98
C0
70
18
88
F0
ENDCHAR
STARTCHAR uni1E66
ENCODING 7782
SWIDTH 541 0
DWIDTH 8 0
BBX 6 15 1 0
BITMAP
20
20
00
50
20
00
78
CC
84
C0
78
0C
84
CC
78
ENDCHAR
STARTCHAR uni1E67
ENCODING 7783
SWIDTH 436 0
DWIDTH 7 0
BBX 5 13 1 0
BITMAP
20
20
00
50
20
00
70
98
C0
70
18
88
F0
ENDCHAR
STARTCHAR uni1E68
ENCODING 7784
SWIDTH 541 0
DWIDTH 8 0
BBX 6 16 1 -3
BITMAP
20
20
00
78
CC
84
C0
60
18
0C
84
CC
78
00
10
10
ENDCHAR
STARTCHAR uni1E69
ENCODING 7785
SWIDTH 436 0
DWIDTH 7 0
BBX 5 13 1 -3
BITMAP
20
20
00
70
98
C0
70
18
88
F0
00
20
20
ENDCHAR
STARTCHAR uni1E6A
ENCODING 7786
SWIDTH 621 0
DWIDTH 9 0
BBX 9 13 0 0
BITMAP
0800
0800
0000
FF80
8880
0800
0800
0800
0800
0800
0800
0800
1C00
ENDCHAR
STARTCHAR uni1E6B
ENCODING 7787
SWIDTH 344 0
DWIDTH 4 0
BBX 4 12 0 0
BITMAP
40
40
00
40
40
F0
40
40
40
40
40
30
ENDCHAR
STARTCHAR uni1E6C
ENCODING 7788
SWIDTH 621 0
DWIDTH 9 0
BBX 9 13 0 -3
BITMAP
FF80
8880
0800
0800
0800
0800
0800
0800
0800
1C00
0000
0800
0800
ENDCHAR
STARTCHAR uni1E6D
ENCODING 7789
SWIDTH 344 0
DWIDTH 4 0
BBX 4 12 0 -3
BITMAP
40
40
F0
40
40
40
40
40
30
00
20
20
ENDCHAR
STARTCHAR uni1E6E
ENCODING 7790
SWIDTH 621 0
DWIDTH 9 0
BBX 9 12 0 -2
BITMAP
FF80
8880
0800
0800
0800
0800
0800
0800
0800
1C00
0000
1E00
ENDCHAR
STARTCHAR uni1E6F
ENCODING 7791
SWIDTH 344 0
DWIDTH 4 0
BBX 4 11 0 -2
BITMAP
40
40
F0
40
40
40
40
40
30
00
F0
ENDCHAR
STARTCHAR uni1E70
ENCODING 7792
SWIDTH 621 0
DWIDTH 9 0
BBX 9 13 0 -3
BITMAP
FF80
8880
0800
0800
0800
0800
0800
0800
0800
1C00
0000
0800
1400
ENDCHAR
STARTCHAR uni1E71
ENCODING 7793
SWIDTH 344 0
DWIDTH 4 0
BBX 4 12 0 -3
BITMAP
40
40
F0
40
40
40
40
40
30
00
20
50
ENDCHAR
STARTCHAR uni1E72
ENCODING 7794
SWIDTH 791 0
DWIDTH 11 0
BBX 9 13 1 -3
BITMAP
E380
4100
4100
4100
4100
4100
4100
4100
6300
3E00
0000
1400
1400
ENDCHAR
STARTCHAR uni1E73
ENCODING 7795
SWIDTH 606 0
DWIDTH 9 0
BBX 7 10 1 -3
BITMAP
CC
44
44
44
44
6C
36
00
28
28
ENDCHAR
STARTCHAR uni1E74
ENCODING 7796
SWIDTH 791 0
DWIDTH 11 0
BBX 9 13 1 -3
BITMAP
E380
4100
4100
4100
4100
4100
4100
4100
6300
3E00
0000
1A00
2C00
ENDCHAR
STARTCHAR uni1E75
ENCODING 7797
SWIDTH 606 0
DWIDTH 9 0
BBX 7 10 1 -3
BITMAP
CC
44
44
44
44
6C
36
00
34
58
ENDCHAR
STARTCHAR uni1E76
ENCODING 7798
SWIDTH 791 0
DWIDTH 11 0
BBX 9 13 1 -3
BITMAP
E380
4100
4100
4100
4100
4100
4100
4100
6300
3E00
0000
0800
1400
ENDCHAR
STARTCHAR uni1E77
ENCODING 7799
SWIDTH 606 0
DWIDTH 9 0
BBX 7 10 1 -3
BITMAP
CC
44
44
44
44
6C
36
00
10
28
ENDCHAR
STARTCHAR uni1E78
ENCODING 7800
SWIDTH 791 0
DWIDTH 11 0
BBX 9 16 1 0
BITMAP
0600
0800
0000
1A00
2C00
0000
E380
4100
4100
4100
4100
4100
4100
4100
6300
3E00
ENDCHAR
STARTCHAR uni1E79
ENCODING 7801
SWIDTH 606 0
DWIDTH 9 0
BBX 7 13 1 0
BITMAP
0C
10
00
34
58
00
CC
44
44
44
44
6C
36
ENDCHAR
STARTCHAR uni1E7A
ENCODING 7802
SWIDTH 791 0
DWIDTH 11 0
BBX 9 15 1 0
BITMAP
1400
1400
0000
1E00
0000
E380
4100
4100
4100
4100
4100
4100
4100
6300
3E00
ENDCHAR
STARTCHAR uni1E7B
ENCODING 7803
SWIDTH 606 0
DWIDTH 9 0
BBX 7 12 1 0
BITMAP
28
28
00
78
00
CC
44
44
44
44
6C
36
ENDCHAR
STARTCHAR uni1E7C
ENCODING 7804
SWIDTH 634 0
DWIDTH 9 0
BBX 9 13 0 0
BITMAP
1A00
2C00
0000
E380
4100
6100
2200
2200
3200
1400
1C00
0800
0800
ENDCHAR
STARTCHAR uni1E7D
ENCODING 7805
SWIDTH 504 0
DWIDTH 7 0
BBX 7 10 0 0
BITMAP
34
58
00
EE
44
64
28
38
10
10
ENDCHAR
STARTCHAR uni1E7E
ENCODING 7806
SWIDTH 634 0
DWIDTH 9 0
BBX 9 13 0 -3
BITMAP
E380
4100
6100
2200
2200
3200
1400
1C00
0800
0800
0000
0800
0800
ENDCHAR
STARTCHAR uni1E7F
ENCODING 7807
SWIDTH 504 0
DWIDTH 7 0
BBX 7 10 0 -3
BITMAP
EE
44
64
28
38
10
10
00
10
10
ENDCHAR
STARTCHAR Wgrave
ENCODING 7808
SWIDTH 940 0
DWIDTH 15 0
BBX 15 13 0 0
BITMAP
0600
0100
0000
E10E
4104
6388
2288
2288
34D0
1450
1450
1860
0820
ENDCHAR
STARTCHAR wgrave
ENCODING 7809
SWIDTH 768 0
DWIDTH 11 0
BBX 11 10 0 0
BITMAP
1800
0400
0000
E4E0
4440
6640
2A80
3B80
1100
1100
ENDCHAR
STARTCHAR Wacute
ENCODING 7810
SWIDTH 940 0
DWIDTH 15 0
BBX 15 13 0 0
BITMAP
0180
0200
0000
E10E
4104
6388
2288
2288
34D0
1450
1450
1860
0820
ENDCHAR
STARTCHAR wacute
ENCODING 7811
SWIDTH 768 0
DWIDTH 11 0
BBX 11 10 0 0
BITMAP
0300
0400
0000
E4E0
4440
6640
2A80
3B80
1100
1100
ENDCHAR
STARTCHAR Wdieresis
ENCODING 7812
SWIDTH 940 0
DWIDTH 15 0
BBX 15 13 0 0
BITMAP
0280
0280
0000
E10E
4104
6388
2288
2288
34D0
1450
1450
1860
0820
ENDCHAR
STARTCHAR wdieresis
ENCODING 7813
SWIDTH 768 0
DWIDTH 11 0
BBX 11 10 0 0
BITMAP
0A00
0A00
0000
E4E0
4440
6640
2A80
3B80
1100
1100
ENDCHAR
STARTCHAR uni1E86
ENCODING 7814
SWIDTH 940 0
DWIDTH 15 0
BBX 15 13 0 0
BITMAP
0100
0100
0000
E10E
4104
6388
2288
2288
34D0
1450
1450
1860
0820
ENDCHAR
STARTCHAR uni1E87
ENCODING 7815
SWIDTH 768 0
DWIDTH 11 0
BBX 11 10 0 0
BITMAP
0400
0400
0000
E4E0
4440
6640
2A80
3B80
1100
1100
ENDCHAR
STARTCHAR uni1E88
ENCODING 7816
SWIDTH 940 0
DWIDTH 15 0
BBX 15 13 0 -3
BITMAP
E10E
4104
6388
2288
2288
34D0
1450
1450
1860
0820
0000
0100
0100
ENDCHAR
STARTCHAR uni1E89
ENCODING 7817
SWIDTH 768 0
DWIDTH 11 0
BBX 11 10 0 -3
BITMAP
E4E0
4440
6640
2A80
3B80
1100
1100
0000
0400
0400
ENDCHAR
STARTCHAR uni1E8A
ENCODING 7818
SWIDTH 624 0
DWIDTH 10 0
BBX 8 13 1 0
BITMAP
08
08
00
E7
42
24
34
18
18
2C
24
42
E7
ENDCHAR
STARTCHAR uni1E8B
ENCODING 7819
SWIDTH 486 0
DWIDTH 7 0
BBX 7 10 0 0
BITMAP
10
10
00
EE
44
28
10
28
44
EE
ENDCHAR
STARTCHAR uni1E8C
ENCODING 7820
SWIDTH 624 0
DWIDTH 10 0
BBX 8 13 1 0
BITMAP
14
14
00
E7
42
24
34
18
18
2C
24
42
E7
ENDCHAR
STARTCHAR uni1E8D
ENCODING 7821
SWIDTH 486 0
DWIDTH 7 0
BBX 7 10 0 0
BITMAP
28
28
00
EE
44
28
10
28
44
EE
ENDCHAR
STARTCHAR uni1E8E
ENCODING 7822
SWIDTH 588 0
DWIDTH 9 0
BBX 9 13 0 0
BITMAP
0800
0800
0000
E380
6100
2200
3200
1400
1C00
0800
0800
0800
1C00
ENDCHAR
STARTCHAR uni1E8F
ENCODING 7823
SWIDTH 506 0
DWIDTH 7 0
BBX 7 13 0 -3
BITMAP
10
10
00
EE
44
64
28
38
10
10
20
A0
C0
ENDCHAR
STARTCHAR uni1E90
ENCODING 7824
SWIDTH 610 0
DWIDTH 9 0
BBX 7 13 1 0
BITMAP
10
28
00
FE
86
0C
08
18
30
20
62
C2
FE
ENDCHAR
STARTCHAR uni1E91
ENCODING 7825
SWIDTH 480 0
DWIDTH 6 0
BBX 6 10 0 0
BITMAP
20
50
00
FC
88
10
20
40
84
FC
ENDCHAR
STARTCHAR uni1E92
ENCODING 7826
SWIDTH 610 0
DWIDTH 9 0
BBX 7 13 1 -3
BITMAP
FE
86
0C
08
18
30
20
62
C2
FE
00
10
10
ENDCHAR
STARTCHAR uni1E93
ENCODING 7827
SWIDTH 480 0
DWIDTH 6 0
BBX 6 10 0 -3
BITMAP
FC
88
10
20
40
84
FC
00
10
10
ENDCHAR
STARTCHAR uni1E94
ENCODING 7828
SWIDTH 610 0
DWIDTH 9 0
BBX 7 12 1 -2
BITMAP
FE
86
0C
08
18
30
20
62
C2
FE
00
78
ENDCHAR
STARTCHAR uni1E95
ENCODING 7829
SWIDTH 480 0
DWIDTH 6 0
BBX 6 9 0 -2
BITMAP
FC
88
10
20
40
84
FC
00
78
ENDCHAR
STARTCHAR uni1E96
ENCODING 7830
SWIDTH 607 0
DWIDTH 9 0
BBX 7 13 1 -2
BITMAP
C0
40
40
40
58
6C
44
44
44
44
EE
00
3C
ENDCHAR
STARTCHAR uni1E97
ENCODING 7831
SWIDTH 344 0
DWIDTH 4 0
BBX 4 12 0 0
BITMAP
A0
A0
00
40
40
F0
40
40
40
40
40
30
ENDCHAR
STARTCHAR uni1E98
ENCODING 7832
SWIDTH 768 0
DWIDTH 11 0
BBX 11 11 0 0
BITMAP
0600
0900
0600
0000
E4E0
4440
6640
2A80
3B80
1100
1100
ENDCHAR
STARTCHAR uni1E99
ENCODING 7833
SWIDTH 506 0
DWIDTH 7 0
BBX 7 14 0 -3
BITMAP
30
48
30
00
EE
44
64
28
38
10
10
20
A0
C0
ENDCHAR
STARTCHAR uni1EA0
ENCODING 7840
SWIDTH 635 0
DWIDTH 9 0
BBX 9 13 0 -3
BITMAP
0800
0800
1400
1400
2200
2200
3E00
4100
4100
E380
0000
0800
0800
ENDCHAR
STARTCHAR uni1EA1
ENCODING 7841
SWIDTH 523 0
DWIDTH 8 0
BBX 6 10 1 -3
BITMAP
70
D8
08
78
88
D8
6C
00
10
10
ENDCHAR
STARTCHAR uni1EA4
ENCODING 7844
SWIDTH 635 0
DWIDTH 9 0
BBX 9 15 0 0
BITMAP
0600
0800
0000
0800
1400
0000
0800
0800
1400
1400
2200
3E00
4100
4100
E380
ENDCHAR
STARTCHAR uni1EA5
ENCODING 7845
SWIDTH 523 0
DWIDTH 8 0
BBX 6 13 1 0
BITMAP
18
20
00
20
50
00
70
D8
08
78
88
D8
6C
ENDCHAR
STARTCHAR uni1EA6
ENCODING 7846
SWIDTH 635 0
DWIDTH 9 0
BBX 9 15 0 0
BITMAP
3000
0800
0000
0800
1400
0000
0800
0800
1400
1400
2200
3E00
4100
4100
E380
ENDCHAR
STARTCHAR uni1EA7
ENCODING 7847
SWIDTH 523 0
DWIDTH 8 0
BBX 6 13 1 0
BITMAP
60
10
00
20
50
00
70
D8
08
78
88
D8
6C
ENDCHAR
STARTCHAR uni1EAA
ENCODING 7850
SWIDTH 635 0
DWIDTH 9 0
BBX 9 15 0 0
BITMAP
1A00
2C00
0000
0800
1400
0000
0800
0800
1400
1400
2200
3E00
4100
4100
E380
ENDCHAR
STARTCHAR uni1EAB
ENCODING 7851
SWIDTH 523 0
DWIDTH 8 0
BBX 6 13 1 0
BITMAP
68
B0
00
20
50
00
70
D8
08
78
88
D8
6C
ENDCHAR
STARTCHAR uni1EAC
ENCODING 7852
SWIDTH 635 0
DWIDTH 9 0
BBX 9 16 0 -3
BITMAP
0800
1400
0000
0800
0800
1400
1400
2200
2200
3E00
4100
4100
E380
0000
0800
0800
ENDCHAR
STARTCHAR uni1EAD
ENCODING 7853
SWIDTH 523 0
DWIDTH 8 0
BBX 6 13 1 -3
BITMAP
20
50
00
70
D8
08
78
88
D8
6C
00
10
10
ENDCHAR
STARTCHAR uni1EAE
ENCODING 7854
SWIDTH 635 0
DWIDTH 9 0
BBX 9 16 0 0
BITMAP
0600
0800
0000
2200
1C00
0000
0800
0800
1400
1400
2200
2200
3E00
4100
4100
E380
ENDCHAR
STARTCHAR uni1EAF
ENCODING 7855
SWIDTH 523 0
DWIDTH 8 0
BBX 6 13 1 0
BITMAP
18
20
00
88
70
00
70
D8
08
78
88
D8
6C
ENDCHAR
STARTCHAR uni1EB0
ENCODING 7856
SWIDTH 635 0
DWIDTH 9 0
BBX 9 16 0 0
BITMAP
3000
0800
0000
2200
1C00
0000
0800
0800
1400
1400
2200
2200
3E00
4100
4100
E380
ENDCHAR
STARTCHAR uni1EB1
ENCODING 7857
SWIDTH 523 0
DWIDTH 8 0
BBX 6 13 1 0
BITMAP
60
10
00
88
70
00
70
D8
08
78
88
D8
6C
ENDCHAR
STARTCHAR uni1EB4
ENCODING 7860
SWIDTH 635 0
DWIDTH 9 0
BBX 9 16 0 0
BITMAP
1A00
2C00
0000
2200
1C00
0000
0800
0800
1400
1400
2200
2200
3E00
4100
4100
E380
ENDCHAR
STARTCHAR uni1EB5
ENCODING 7861
SWIDTH 523 0
DWIDTH 8 0
BBX 6 13 1 0
BITMAP
68
B0
00
88
70
00
70
D8
08
78
88
D8
6C
ENDCHAR
STARTCHAR uni1EB6
ENCODING 7862
SWIDTH 635 0
DWIDTH 9 0
BBX 9 16 0 -3
BITMAP
2200
1C00
0000
0800
0800
1400
1400
2200
2200
3E00
4100
4100
E380
0000
0800
0800
ENDCHAR
STARTCHAR uni1EB7
ENCODING 7863
SWIDTH 523 0
DWIDTH 8 0
BBX 6 13 1 -3
BITMAP
88
70
00
70
D8
08
78
88
D8
6C
00
10
10
ENDCHAR
STARTCHAR uni1EB8
ENCODING 7864
SWIDTH 606 0
DWIDTH 9 0
BBX 7 13 1 -3
BITMAP
FE
42
40
44
7C
44
40
42
42
FE
00
10
10
ENDCHAR
STARTCHAR uni1EB9
ENCODING 7865
SWIDTH 514 0
DWIDTH 8 0
BBX 6 10 1 -3
BITMAP
78
CC
84
FC
80
C4
78
00
20
20
ENDCHAR
STARTCHAR uni1EBC
ENCODING 7868
SWIDTH 606 0
DWIDTH 9 0
BBX 7 13 1 0
BITMAP
34
58
00
FE
42
40
44
7C
44
40
42
42
FE
ENDCHAR
STARTCHAR uni1EBD
ENCODING 7869
SWIDTH 514 0
DWIDTH 8 0
BBX 6 10 1 0
BITMAP
34
58
00
78
CC
84
FC
80
C4
78
ENDCHAR
STARTCHAR uni1EBE
ENCODING 7870
SWIDTH 606 0
DWIDTH 9 0
BBX 7 15 1 0
BITMAP
0C
10
00
10
28
00
FE
42
40
44
7C
44
40
42
FE
ENDCHAR
STARTCHAR uni1EBF
ENCODING 7871
SWIDTH 514 0
DWIDTH 8 0
BBX 6 13 1 0
BITMAP
18
20
00
20
50
00
78
CC
84
FC
80
C4
78
ENDCHAR
STARTCHAR uni1EC0
ENCODING 7872
SWIDTH 606 0
DWIDTH 9 0
BBX 7 15 1 0
BITMAP
60
10
00
10
28
00
FE
42
40
44
7C
44
40
42
FE
ENDCHAR
STARTCHAR uni1EC1
ENCODING 7873
SWIDTH 514 0
DWIDTH 8 0
BBX 6 13 1 0
BITMAP
60
10
00
20
50
00
78
CC
84
FC
80
C4
78
ENDCHAR
STARTCHAR uni1EC4
ENCODING 7876
SWIDTH 606 0
DWIDTH 9 0
BBX 7 15 1 0
BITMAP
34
58
00
10
28
00
FE
42
40
44
7C
44
40
42
FE
ENDCHAR
STARTCHAR uni1EC5
ENCODING 7877
SWIDTH 514 0
DWIDTH 8 0
BBX 6 13 1 0
BITMAP
68
B0
00
20
50
00
78
CC
84
FC
80
C4
78
ENDCHAR
STARTCHAR uni1EC6
ENCODING 7878
SWIDTH 606 0
DWIDTH 9 0
BBX 7 16 1 -3
BITMAP
10
28
00
FE
42
40
44
7C
44
40
42
42
FE
00
10
10
ENDCHAR
STARTCHAR uni1EC7
ENCODING 7879
SWIDTH 514 0
DWIDTH 8 0
BBX 6 13 1 -3
BITMAP
10
28
00
78
CC
84
FC
80
C4
78
00
20
20
ENDCHAR
STARTCHAR uni1ECA
ENCODING 7882
SWIDTH 349 0
DWIDTH 5 0
BBX 3 13 1 -3
BITMAP
E0
40
40
40
40
40
40
40
40
E0
00
40
40
ENDCHAR
STARTCHAR uni1ECB
ENCODING 7883
SWIDTH 291 0
DWIDTH 5 0
BBX 3 13 1 -3
BITMAP
40
40
00
C0
40
40
40
40
40
E0
00
40
40
ENDCHAR
STARTCHAR uni1ECC
ENCODING 7884
SWIDTH 762 0
DWIDTH 11 0
BBX 9 13 1 -3
BITMAP
3E00
4100
C180
8080
8080
8080
8080
C180
4100
3E00
0000
0800
0800
ENDCHAR
STARTCHAR uni1ECD
ENCODING 7885
SWIDTH 577 0
DWIDTH 8 0
BBX 6 10 1 -3
BITMAP
78
CC
84
84
84
CC
78
00
10
10
ENDCHAR
STARTCHAR uni1ED0
ENCODING 7888
SWIDTH 762 0
DWIDTH 11 0
BBX 9 15 1 0
BITMAP
0600
0800
0000
0800
1400
0000
3E00
4100
C180
8080
8080
8080
C180
4100
3E00
ENDCHAR
STARTCHAR uni1ED1
ENCODING 7889
SWIDTH 577 0
DWIDTH 8 0
BBX 6 13 1 0
BITMAP
18
20
00
20
50
00
78
CC
84
84
84
CC
78
ENDCHAR
STARTCHAR uni1ED2
ENCODING 7890
SWIDTH 762 0
DWIDTH 11 0
BBX 9 15 1 0
BITMAP
3000
0800
0000
0800
1400
0000
3E00
4100
C180
8080
8080
8080
C180
4100
3E00
ENDCHAR
STARTCHAR uni1ED3
ENCODING 7891
SWIDTH 577 0
DWIDTH 8 0
BBX 6 13 1 0
BITMAP
60
10
00
20
50
00
78
CC
84
84
84
CC
78
ENDCHAR
STARTCHAR uni1ED6
ENCODING 7894
SWIDTH 762 0
DWIDTH 11 0
BBX 9 15 1 0
BITMAP
1A00
2C00
0000
0800
1400
0000
3E00
4100
C180
8080
8080
8080
C180
4100
3E00
ENDCHAR
STARTCHAR uni1ED7
ENCODING 7895
SWIDTH 577 0
DWIDTH 8 0
BBX 6 13 1 0
BITMAP
68
B0
00
20
50
00
78
CC
84
84
84
CC
78
ENDCHAR
STARTCHAR uni1ED8
ENCODING 7896
SWIDTH 762 0
DWIDTH 11 0
BBX 9 16 1 -3
BITMAP
0800
1400
0000
3E00
4100
C180
8080
8080
8080
8080
C180
4100
3E00
0000
0800
0800
ENDCHAR
STARTCHAR uni1ED9
ENCODING 7897
SWIDTH 577 0
DWIDTH 8 0
BBX 6 13 1 -3
BITMAP
10
28
00
78
CC
84
84
84
CC
78
00
10
10
ENDCHAR
STARTCHAR uni1EDA
ENCODING 7898
SWIDTH 762 0
DWIDTH 11 0
BBX 10 13 1 0
BITMAP
0300
0400
0000
3EC0
4140
C1C0
8080
8080
8080
8080
C180
4100
3E00
ENDCHAR
STARTCHAR uni1EDB
ENCODING 7899
SWIDTH 577 0
DWIDTH 8 0
BBX 8 10 1 0
BITMAP
0C
10
00
7B
CD
85
86
84
CC
78
ENDCHAR
STARTCHAR uni1EDC
ENCODING 7900
SWIDTH 762 0
DWIDTH 11 0
BBX 10 13 1 0
BITMAP
1800
0400
0000
3EC0
4140
C1C0
8080
8080
8080
8080
C180
4100
3E00
ENDCHAR
STARTCHAR uni1EDD
ENCODING 7901
SWIDTH 577 0
DWIDTH 8 0
BBX 8 10 1 0
BITMAP
30
08
00
7B
CD
85
86
84
CC
78
ENDCHAR
STARTCHAR uni1EE0
ENCODING 7904
SWIDTH 762 0
DWIDTH 11 0
BBX 10 13 1 0
BITMAP
0D00
1600
0000
3EC0
4140
C1C0
8080
8080
8080
8080
C180
4100
3E00
ENDCHAR
STARTCHAR uni1EE1
ENCODING 7905
SWIDTH 577 0
DWIDTH 8 0
BBX 8 10 1 0
BITMAP
1A
2C
00
7B
CD
85
86
84
CC
78
ENDCHAR
STARTCHAR uni1EE2
ENCODING 7906
SWIDTH 762 0
DWIDTH 11 0
BBX 10 13 1 -3
BITMAP
3EC0
4140
C1C0
8080
8080
8080
8080
C180
4100
3E00
0000
0800
0800
ENDCHAR
STARTCHAR uni1EE3
ENCODING 7907
SWIDTH 577 0
DWIDTH 8 0
BBX 8 10 1 -3
BITMAP
7B
CD
85
86
84
CC
78
00
10
10
ENDCHAR
STARTCHAR uni1EE4
ENCODING 7908
SWIDTH 791 0
DWIDTH 11 0
BBX 9 13 1 -3
BITMAP
E380
4100
4100
4100
4100
4100
4100
4100
6300
3E00
0000
0800
0800
ENDCHAR
STARTCHAR uni1EE5
ENCODING 7909
SWIDTH 606 0
DWIDTH 9 0
BBX 7 10 1 -3
BITMAP
CC
44
44
44
44
6C
36
00
10
10
ENDCHAR
STARTCHAR uni1EE8
ENCODING 7912
SWIDTH 791 0
DWIDTH 11 0
BBX 10 13 1 0
BITMAP
0300
0400
0000
E3C0
4140
4140
4180
4100
4100
4100
4100
6300
3E00
ENDCHAR
STARTCHAR uni1EE9
ENCODING 7913
SWIDTH 606 0
DWIDTH 9 0
BBX 9 10 1 0
BITMAP
0600
0800
0000
CD80
4480
4480
4500
4400
6C00
3600
ENDCHAR
STARTCHAR uni1EEA
ENCODING 7914
SWIDTH 791 0
DWIDTH 11 0
BBX 10 13 1 0
BITMAP
1800
0400
0000
E3C0
4140
4140
4180
4100
4100
4100
4100
6300
3E00
ENDCHAR
STARTCHAR uni1EEB
ENCODING 7915
SWIDTH 606 0
DWIDTH 9 0
BBX 9 10 1 0
BITMAP
1800
0400
0000
CD80
4480
4480
4500
4400
6C00
3600
ENDCHAR
STARTCHAR uni1EEE
ENCODING 7918
SWIDTH 791 0
DWIDTH 11 0
BBX 10 13 1 0
BITMAP
0D00
1600
0000
E3C0
4140
4140
4180
4100
4100
4100
4100
6300
3E00
ENDCHAR
STARTCHAR uni1EEF
ENCODING 7919
SWIDTH 606 0
DWIDTH 9 0
BBX 9 10 1 0
BITMAP
1A00
2C00
0000
CD80
4480
4480
4500
4400
6C00
3600
ENDCHAR
STARTCHAR uni1EF0
ENCODING 7920
SWIDTH 791 0
DWIDTH 11 0
BBX 10 13 1 -3
BITMAP
E3C0
4140
4140
4180
4100
4100
4100
4100
6300
3E00
0000
0800
0800
ENDCHAR
STARTCHAR uni1EF1
ENCODING 7921
SWIDTH 606 0
DWIDTH 9 0
BBX 9 10 1 -3
BITMAP
CD80
4480
4480
4500
4400
6C00
3600
0000
0800
0800
ENDCHAR
STARTCHAR Ygrave
ENCODING 7922
SWIDTH 588 0
DWIDTH 9 0
BBX 9 13 0 0
BITMAP
3000
0800
0000
E380
6100
2200
3200
1400
1C00
0800
0800
0800
1C00
ENDCHAR
STARTCHAR ygrave
ENCODING 7923
SWIDTH 506 0
DWIDTH 7 0
BBX 7 13 0 -3
BITMAP
60
10
00
EE
44
64
28
38
10
10
20
A0
C0
ENDCHAR
STARTCHAR uni1EF4
ENCODING 7924
SWIDTH 588 0
DWIDTH 9 0
BBX 9 13 0 -3
BITMAP
E380
6100
2200
3200
1400
1C00
0800
0800
0800
1C00
0000
0800
0800
ENDCHAR
STARTCHAR uni1EF5
ENCODING 7925
SWIDTH 506 0
DWIDTH 7 0
BBX 7 13 0 -6
BITMAP
EE
44
64
28
38
10
10
20
A0
C0
00
20
20
ENDCHAR
STARTCHAR uni1EF8
ENCODING 7928
SWIDTH 588 0
DWIDTH 9 0
BBX 9 13 0 0
BITMAP
1A00
2C00
0000
E380
6100
2200
3200
1400
1C00
0800
0800
0800
1C00
ENDCHAR
STARTCHAR uni1EF9
ENCODING 7929
SWIDTH 506 0
DWIDTH 7 0
BBX 7 13 0 -3
BITMAP
34
58
00
EE
44
64
28
38
10
10
20
A0
C0
ENDCHAR
STARTCHAR uni2000
ENCODING 8192
SWIDTH 500 0
DWIDTH 7 0
BBX 1 1 0 0
BITMAP
00
ENDCHAR
STARTCHAR uni2001
ENCODING 8193
SWIDTH 1000 0
DWIDTH 15 0
BBX 1 1 0 0
BITMAP
00
ENDCHAR
STARTCHAR uni2002
ENCODING 8194
SWIDTH 500 0
DWIDTH 7 0
BBX 1 1 0 0
BITMAP
00
ENDCHAR
STARTCHAR uni2003
ENCODING 8195
SWIDTH 1000 0
DWIDTH 15 0
BBX 1 1 0 0
BITMAP
00
ENDCHAR
STARTCHAR uni2004
ENCODING 8196
SWIDTH 333 0
DWIDTH 5 0
BBX 1 1 0 0
BITMAP
00
ENDCHAR
STARTCHAR uni2005
ENCODING 8197
SWIDTH 250 0
DWIDTH 4 0
BBX 1 1 0 0
BITMAP
00
ENDCHAR
STARTCHAR uni2006
ENCODING 8198
SWIDTH 167 0
DWIDTH 2 0
BBX 1 1 0 0
BITMAP
00
ENDCHAR
STARTCHAR uni2007
ENCODING 8199
SWIDTH 530 0
DWIDTH 8 0
BBX 1 1 0 0
BITMAP
00
ENDCHAR
STARTCHAR uni2008
ENCODING 8200
SWIDTH 265 0
DWIDTH 4 0
BBX 1 1 0 0
BITMAP
00
ENDCHAR
STARTCHAR uni2009
ENCODING 8201
SWIDTH 200 0
DWIDTH 3 0
BBX 1 1 0 0
BITMAP
00
ENDCHAR
STARTCHAR uni200A
ENCODING 8202
SWIDTH 100 0
DWIDTH 1 0
BBX 1 1 0 0
BITMAP
00
ENDCHAR
STARTCHAR uni200B
ENCODING 8203
SWIDTH 0 0
DWIDTH 0 0
BBX 1 1 0 0
BITMAP
00
ENDCHAR
STARTCHAR uni2010
ENCODING 8208
SWIDTH 392 0
DWIDTH 5 0
BBX 3 1 1 3
BITMAP
E0
ENDCHAR
STARTCHAR uni2011
ENCODING 8209
SWIDTH 392 0
DWIDTH 5 0
BBX 3 1 1 3
BITMAP
E0
ENDCHAR
STARTCHAR figuredash
ENCODING 8210
SWIDTH 500 0
DWIDTH 7 0
BBX 7 1 0 3
BITMAP
FE
ENDCHAR
STARTCHAR endash
ENCODING 8211
SWIDTH 500 0
DWIDTH 7 0
BBX 7 1 0 3
BITMAP
FE
ENDCHAR
STARTCHAR emdash
ENCODING 8212
SWIDTH 1000 0
DWIDTH 14 0
BBX 14 1 0 3
BITMAP
FFFC
ENDCHAR
STARTCHAR afii00208
ENCODING 8213
SWIDTH 1000 0
DWIDTH 14 0
BBX 14 1 0 3
BITMAP
FFFC
ENDCHAR
STARTCHAR quoteleft
ENCODING 8216
SWIDTH 278 0
DWIDTH 4 0
BBX 2 4 1 6
BITMAP
40
80
80
C0
ENDCHAR
STARTCHAR quoteright
ENCODING 8217
SWIDTH 278 0
DWIDTH 4 0
BBX 2 4 1 6
BITMAP
C0
40
40
80
ENDCHAR
STARTCHAR quotesinglbase
ENCODING 8218
SWIDTH 278 0
DWIDTH 4 0
BBX 2 4 0 -2
BITMAP
C0
40
40
80
ENDCHAR
STARTCHAR quotereversed
ENCODING 8219
SWIDTH 278 0
DWIDTH 4 0
BBX 2 4 1 6
BITMAP
C0
80
80
40
ENDCHAR
STARTCHAR quotedblleft
ENCODING 8220
SWIDTH 458 0
DWIDTH 6 0
BBX 4 4 1 6
BITMAP
50
A0
A0
F0
ENDCHAR
STARTCHAR quotedblright
ENCODING 8221
SWIDTH 458 0
DWIDTH 6 0
BBX 4 4 0 6
BITMAP
F0
50
50
A0
ENDCHAR
STARTCHAR quotedblbase
ENCODING 8222
SWIDTH 458 0
DWIDTH 6 0
BBX 4 4 0 -2
BITMAP
F0
50
50
A0
ENDCHAR
STARTCHAR uni201F
ENCODING 8223
SWIDTH 458 0
DWIDTH 6 0
BBX 4 4 0 6
BITMAP
F0
A0
A0
50
ENDCHAR
STARTCHAR dagger
ENCODING 8224
SWIDTH 504 0
DWIDTH 7 0
BBX 5 12 1 -2
BITMAP
20
20
20
F8
20
20
20
20
20
20
20
20
ENDCHAR
STARTCHAR daggerdbl
ENCODING 8225
SWIDTH 488 0
DWIDTH 7 0
BBX 5 12 1 -2
BITMAP
20
20
20
F8
20
20
20
20
F8
20
20
20
ENDCHAR
STARTCHAR bullet
ENCODING 8226
SWIDTH 409 0
DWIDTH 6 0
BBX 5 5 0 3
BITMAP
70
F8
F8
F8
70
ENDCHAR
STARTCHAR ellipsis
ENCODING 8230
SWIDTH 1000 0
DWIDTH 15 0
BBX 11 2 1 0
BITMAP
8420
8420
ENDCHAR
STARTCHAR perthousand
ENCODING 8240
SWIDTH 1208 0
DWIDTH 17 0
BBX 16 10 0 0
BITMAP
6080
9F00
9100
9200
6400
04C6
0929
1129
1129
20C6
ENDCHAR
STARTCHAR guilsinglleft
ENCODING 8249
SWIDTH 257 0
DWIDTH 4 0
BBX 3 5 0 1
BITMAP
20
40
C0
40
20
ENDCHAR
STARTCHAR guilsinglright
ENCODING 8250
SWIDTH 257 0
DWIDTH 4 0
BBX 3 5 0 1
BITMAP
80
40
60
40
80
ENDCHAR
STARTCHAR fraction
ENCODING 8260
SWIDTH 150 0
DWIDTH 2 0
BBX 7 10 -3 0
BITMAP
02
04
04
08
10
10
20
40
40
80
ENDCHAR
STARTCHAR oneinferior
ENCODING 8321
SWIDTH 380 0
DWIDTH 6 0
BBX 3 6 1 -3
BITMAP
40
C0
40
40
40
E0
ENDCHAR
STARTCHAR twoinferior
ENCODING 8322
SWIDTH 380 0
DWIDTH 6 0
BBX 4 6 1 -3
BITMAP
60
90
20
40
80
F0
ENDCHAR
STARTCHAR threeinferior
ENCODING 8323
SWIDTH 380 0
DWIDTH 6 0
BBX 4 6 1 -3
BITMAP
60
90
60
10
90
60
ENDCHAR
STARTCHAR uni20A5
ENCODING 8357
SWIDTH 923 0
DWIDTH 13 0
BBX 11 10 1 -1
BITMAP
0100
0100
DB80
6EC0
4640
4440
4440
4C40
EEE0
0800
ENDCHAR
STARTCHAR uni20A6
ENCODING 8358
SWIDTH 780 0
DWIDTH 12 0
BBX 10 10 1 0
BITMAP
C1C0
6080
7080
7F80
4880
4480
7F80
4380
4180
E080
ENDCHAR
STARTCHAR uni20A9
ENCODING 8361
SWIDTH 940 0
DWIDTH 15 0
BBX 15 10 0 0
BITMAP
E10E
4104
6388
2FE8
2288
34D0
1FF0
1450
1860
0820
ENDCHAR
STARTCHAR Euro
ENCODING 8364
SWIDTH 684 0
DWIDTH 10 0
BBX 9 10 0 0
BITMAP
1F00
2180
6080
FE00
4000
4000
FE00
6080
2180
1F00
ENDCHAR
STARTCHAR uni20AD
ENCODING 8365
SWIDTH 658 0
DWIDTH 10 0
BBX 9 10 1 0
BITMAP
E700
4200
4400
4800
FF80
7800
4C00
4600
4300
E180
ENDCHAR
STARTCHAR uni2103
ENCODING 8451
SWIDTH 1017 0
DWIDTH 15 0
BBX 14 10 0 0
BITMAP
60F8
910C
9304
6200
0200
0200
0200
0304
010C
00F8
ENDCHAR
STARTCHAR uni2109
ENCODING 8457
SWIDTH 913 0
DWIDTH 14 0
BBX 13 10 0 0
BITMAP
63F8
9108
9100
6110
01F0
0110
0100
0100
0100
0380
ENDCHAR
STARTCHAR trademark
ENCODING 8482
SWIDTH 1100 0
DWIDTH 16 0
BBX 14 6 1 4
BITMAP
FE0C
AB18
22A8
22A8
2248
775C
ENDCHAR
STARTCHAR uni212A
ENCODING 8490
SWIDTH 658 0
DWIDTH 10 0
BBX 9 10 1 0
BITMAP
E700
4200
4400
4800
5000
7800
4C00
4600
4300
E180
ENDCHAR
STARTCHAR uni212B
ENCODING 8491
SWIDTH 627 0
DWIDTH 9 0
BBX 9 12 0 0
BITMAP
1800
2400
1800
0800
0800
1400
1400
2200
3E00
4100
4100
E380
ENDCHAR
STARTCHAR uni2132
ENCODING 8498
SWIDTH 580 0
DWIDTH 9 0
BBX 7 10 1 0
BITMAP
0E
04
04
04
44
7C
44
04
84
FE
ENDCHAR
STARTCHAR universal
ENCODING 8704
SWIDTH 635 0
DWIDTH 9 0
BBX 9 10 0 0
BITMAP
E380
4100
4100
3E00
2200
2200
1400
1400
0800
0800
ENDCHAR
STARTCHAR existential
ENCODING 8707
SWIDTH 606 0
DWIDTH 9 0
BBX 7 10 1 0
BITMAP
FE
84
04
44
7C
44
04
84
84
FE
ENDCHAR
STARTCHAR uni2204
ENCODING 8708
SWIDTH 606 0
DWIDTH 9 0
BBX 7 10 1 0
BITMAP
FE
84
0C
4C
7C
54
14
A4
A4
FE
ENDCHAR
STARTCHAR minus
ENCODING 8722
SWIDTH 570 0
DWIDTH 8 0
BBX 7 1 0 3
BITMAP
FE
ENDCHAR
STARTCHAR fraction
ENCODING 8725
SWIDTH 150 0
DWIDTH 2 0
BBX 7 10 -3 0
BITMAP
02
04
04
08
10
10
20
40
40
80
ENDCHAR
STARTCHAR periodcentered
ENCODING 8729
SWIDTH 265 0
DWIDTH 4 0
BBX 1 2 1 3
BITMAP
80
80
ENDCHAR
STARTCHAR uni2236
ENCODING 8758
SWIDTH 265 0
DWIDTH 4 0
BBX 1 7 1 0
BITMAP
80
80
00
00
00
80
80
ENDCHAR
STARTCHAR uni2259
ENCODING 8793
SWIDTH 570 0
DWIDTH 8 0
BBX 7 7 0 1
BITMAP
10
28
00
FE
00
00
FE
ENDCHAR
STARTCHAR uni225A
ENCODING 8794
SWIDTH 570 0
DWIDTH 8 0
BBX 7 7 0 1
BITMAP
28
10
00
FE
00
00
FE
ENDCHAR
STARTCHAR notequal
ENCODING 8800
SWIDTH 570 0
DWIDTH 8 0
BBX 7 10 0 -2
BITMAP
04
04
08
FE
08
10
FE
20
20
20
ENDCHAR
STARTCHAR equivalence
ENCODING 8801
SWIDTH 570 0
DWIDTH 8 0
BBX 7 5 0 1
BITMAP
FE
00
FE
00
FE
ENDCHAR
STARTCHAR uni2262
ENCODING 8802
SWIDTH 570 0
DWIDTH 8 0
BBX 7 10 0 -1
BITMAP
04
04
08
FE
08
FE
10
FE
20
20
ENDCHAR
STARTCHAR lessequal
ENCODING 8804
SWIDTH 570 0
DWIDTH 8 0
BBX 7 9 0 -2
BITMAP
02
0C
30
C0
30
0C
02
00
FE
ENDCHAR
STARTCHAR greaterequal
ENCODING 8805
SWIDTH 570 0
DWIDTH 8 0
BBX 7 9 0 -2
BITMAP
80
60
18
06
18
60
80
00
FE
ENDCHAR
STARTCHAR uni226E
ENCODING 8814
SWIDTH 570 0
DWIDTH 8 0
BBX 7 10 0 -1
BITMAP
04
04
0A
0C
38
D0
30
2C
22
20
ENDCHAR
STARTCHAR uni226F
ENCODING 8815
SWIDTH 570 0
DWIDTH 8 0
BBX 7 10 0 -1
BITMAP
04
04
88
68
18
16
18
60
A0
20
ENDCHAR
STARTCHAR uni2270
ENCODING 8816
SWIDTH 570 0
DWIDTH 8 0
BBX 7 10 0 -2
BITMAP
04
06
0C
38
C8
30
1C
22
20
FE
ENDCHAR
STARTCHAR uni2271
ENCODING 8817
SWIDTH 570 0
DWIDTH 8 0
BBX 7 10 0 -2
BITMAP
04
84
68
18
0E
18
70
A0
20
FE
ENDCHAR
STARTCHAR fi
ENCODING -1
SWIDTH 610 0
DWIDTH 9 0
BBX 8 11 0 0
BITMAP
3C
42
42
40
FE
42
42
42
42
42
E7
ENDCHAR
STARTCHAR fl
ENCODING -1
SWIDTH 610 0
DWIDTH 9 0
BBX 8 11 0 0
BITMAP
3A
46
42
42
F2
42
42
42
42
42
E7
ENDCHAR
ENDFONT
